<svg width="50" height="44" viewBox="0 0 50 44" fill="none" xmlns="http://www.w3.org/2000/svg">
<path d="M20.5632 10.9188L37.7582 41.2432C37.9166 41.5226 38 41.8395 38 42.1621C38 42.4848 37.9166 42.8017 37.7582 43.0811C37.5998 43.3604 37.3719 43.5925 37.0975 43.7538C36.8231 43.9151 36.5118 44 36.195 44H1.80501C1.48816 44 1.1769 43.9151 0.9025 43.7538C0.628102 43.5925 0.400242 43.3604 0.241821 43.0811C0.083399 42.8017 -2.01234e-06 42.4848 0 42.1621C2.01241e-06 41.8395 0.0834071 41.5226 0.241832 41.2432L17.4368 10.9188C17.5953 10.6395 17.8231 10.4075 18.0975 10.2462C18.3719 10.0849 18.6832 10 19 10C19.3168 10 19.6281 10.0849 19.9025 10.2462C20.1769 10.4075 20.4047 10.6395 20.5632 10.9188ZM17.1949 34.8108V38.4865H20.8051V34.8108H17.1949ZM17.1949 21.9459V31.1351H20.8051V21.9459H17.1949Z" fill="#4F4F4F"/>
<circle cx="35.5" cy="14.5" r="12.5" fill="#D11616" stroke="#EFEFEF" stroke-width="4"/>
<path d="M32.4792 12.712C32.5112 11.856 32.7912 11.196 33.3192 10.732C33.8472 10.268 34.5632 10.036 35.4672 10.036C36.0672 10.036 36.5792 10.14 37.0032 10.348C37.4352 10.556 37.7592 10.84 37.9752 11.2C38.1992 11.56 38.3112 11.964 38.3112 12.412C38.3112 12.94 38.1792 13.372 37.9152 13.708C37.6512 14.036 37.3432 14.26 36.9912 14.38V14.428C37.4472 14.58 37.8072 14.832 38.0712 15.184C38.3352 15.536 38.4672 15.988 38.4672 16.54C38.4672 17.036 38.3512 17.476 38.1192 17.86C37.8952 18.236 37.5632 18.532 37.1232 18.748C36.6912 18.964 36.1752 19.072 35.5752 19.072C34.6152 19.072 33.8472 18.836 33.2712 18.364C32.7032 17.892 32.4032 17.18 32.3712 16.228H34.3632C34.3712 16.58 34.4712 16.86 34.6632 17.068C34.8552 17.268 35.1352 17.368 35.5032 17.368C35.8152 17.368 36.0552 17.28 36.2232 17.104C36.3992 16.92 36.4872 16.68 36.4872 16.384C36.4872 16 36.3632 15.724 36.1152 15.556C35.8752 15.38 35.4872 15.292 34.9512 15.292H34.5672V13.624H34.9512C35.3592 13.624 35.6872 13.556 35.9352 13.42C36.1912 13.276 36.3192 13.024 36.3192 12.664C36.3192 12.376 36.2392 12.152 36.0792 11.992C35.9192 11.832 35.6992 11.752 35.4192 11.752C35.1152 11.752 34.8872 11.844 34.7352 12.028C34.5912 12.212 34.5072 12.44 34.4832 12.712H32.4792Z" fill="white"/>
</svg>
