<svg width="20" height="18" viewBox="0 0 20 18" fill="none" xmlns="http://www.w3.org/2000/svg">
<path d="M5.55556 14.7393L9.32222 9.67426C9.68889 9.17428 10.4111 9.07646 10.9 9.45688L20 16.3696V16.9131C20 17.5109 19.5 18 18.8889 18H1.11111C0.5 18 0 17.5109 0 16.9131V10.696C0.244444 10.696 0.488889 10.772 0.688889 10.9351L5.55556 14.7393ZM0 8.2178C0.488889 8.2178 0.977778 8.38083 1.38889 8.69604L5.13333 11.6198L8.21111 7.4787C8.94445 6.48961 10.3778 6.28309 11.3778 7.04393L20 13.6197V4.95706C20 4.35926 19.5 3.87015 18.8889 3.87015H15.5556L10.9111 0.239866C10.7933 0.147026 10.6572 0.0787664 10.5114 0.0392884C10.3655 -0.000189638 10.213 -0.0100504 10.0631 0.0103134C9.9132 0.0306772 9.76917 0.0808344 9.63984 0.157697C9.51052 0.23456 9.39865 0.336502 9.31111 0.457248L4.44444 7.13088L0.666667 4.35926C0.466667 4.21796 0.233333 4.14188 0 4.14188V8.2178Z" fill="#8B8989"/>
</svg>
