<svg width="54" height="32" viewBox="0 0 54 32" fill="none" xmlns="http://www.w3.org/2000/svg">
<path fill-rule="evenodd" clip-rule="evenodd" d="M42.6667 0H8C5.87827 0 3.84344 0.842855 2.34315 2.34315C0.842855 3.84344 0 5.87827 0 8V24C0 26.1217 0.842855 28.1566 2.34315 29.6569C3.84344 31.1571 5.87827 32 8 32H42.6667C44.7884 32 46.8232 31.1571 48.3235 29.6569C49.8238 28.1566 50.6667 26.1217 50.6667 24C51.3739 24 52.0522 23.719 52.5523 23.219C53.0524 22.7189 53.3333 22.0406 53.3333 21.3333V10.6667C53.3333 9.95942 53.0524 9.28115 52.5523 8.78105C52.0522 8.28095 51.3739 8 50.6667 8C50.6667 5.87827 49.8238 3.84344 48.3235 2.34315C46.8232 0.842855 44.7884 0 42.6667 0ZM42.6667 5.33333H8C7.29276 5.33333 6.61448 5.61429 6.11438 6.11438C5.61429 6.61448 5.33333 7.29276 5.33333 8V24C5.33333 24.7072 5.61429 25.3855 6.11438 25.8856C6.61448 26.3857 7.29276 26.6667 8 26.6667H42.6667C43.3739 26.6667 44.0522 26.3857 44.5523 25.8856C45.0524 25.3855 45.3333 24.7072 45.3333 24V8C45.3333 7.29276 45.0524 6.61448 44.5523 6.11438C44.0522 5.61429 43.3739 5.33333 42.6667 5.33333Z" fill="#4F4F4F"/>
</svg>
