<svg width="27" height="40" viewBox="0 0 27 40" fill="none" xmlns="http://www.w3.org/2000/svg">
<path d="M14.82 28.58L12 32.34V24.82M12 7.66L14.82 11.42L12 15.16M19.065 11.42L10.5 0H9V15.16L2.115 6L0 8.82L8.385 20L0 31.16L2.115 34L9 24.82V40H10.5L19.065 28.58L12.615 20M24.795 9.42L22.89 12C23.835 14.36 24.375 17.1 24.375 20C24.375 22.9 23.835 25.64 22.89 28L24.69 30.44C26.2 27.2639 27.0012 23.5805 27 19.82C27 16 26.19 12.46 24.795 9.42ZM16.86 20L20.34 24.66C20.76 23.2 21 21.64 21 20C21 18.36 20.76 16.8 20.355 15.36L16.86 20Z" fill="#4F4F4F"/>
<path d="M22.89 12L24.795 9.42C26.19 12.46 27 16 27 19.82C27.0012 23.5805 26.2 27.2639 24.69 30.44L22.89 28C23.835 25.64 24.375 22.9 24.375 20C24.375 17.1 23.835 14.36 22.89 12Z" fill="#4F4F4F"/>
</svg>
