<svg width="30" height="33" viewBox="0 0 30 33" fill="none" xmlns="http://www.w3.org/2000/svg">
<path d="M5.91913 12.7578L5.37907 13.4398V13.4426C4.89772 14.0581 4.44452 14.6653 4.13142 15.2136C3.71489 15.9429 3.05797 17.4102 3.91722 18.9689C3.9366 19.0043 3.95659 19.0394 3.97716 19.0741L3.97714 19.0742L3.98207 19.0824C4.82353 20.4919 6.30264 20.7928 7.1102 20.8982C7.95134 21.008 9.02797 21.0078 10.1488 21.0076C10.1976 21.0076 10.2465 21.0076 10.2955 21.0076C10.4679 21.0076 10.6211 21.0076 10.7597 21.0082C10.7597 21.0581 10.7597 21.1103 10.7597 21.165V21.4905C10.7597 21.5514 10.7597 21.612 10.7597 21.6725C10.7595 23.2396 10.7592 24.6847 10.9151 25.7649C11.0543 26.729 11.4998 28.7605 13.6102 29.3644C15.582 29.9287 17.074 28.6477 17.782 27.9609C18.5865 27.1804 19.5055 26.02 20.5262 24.7312C20.5627 24.6852 20.5993 24.639 20.636 24.5926L20.6365 24.5921L24.0802 20.2421C24.1124 20.2014 24.1447 20.1607 24.177 20.12C24.8138 19.3171 25.4603 18.5019 25.8687 17.7866C26.2861 17.0556 26.9448 15.5834 26.0772 14.0211L26.0717 14.0112L26.0662 14.0014L26.0459 13.9657L26.0322 13.9415L26.0179 13.9176C25.1765 12.5081 23.6974 12.2072 22.8898 12.1018C22.0487 11.992 20.972 11.9922 19.8512 11.9924C19.8024 11.9924 19.7535 11.9924 19.7045 11.9924C19.5321 11.9924 19.3789 11.9924 19.2403 11.9918C19.2403 11.9419 19.2403 11.8897 19.2403 11.835V11.5095C19.2403 11.4486 19.2403 11.388 19.2403 11.3275C19.2405 9.7604 19.2408 8.31529 19.0849 7.23515C18.9457 6.27104 18.5002 4.23951 16.3898 3.63557C14.4183 3.07138 12.9261 4.35195 12.2178 5.03893C11.4112 5.82123 10.4901 6.98477 9.46718 8.27703C9.43281 8.32045 9.39833 8.36401 9.36373 8.40772C9.36369 8.40776 9.36366 8.4078 9.36363 8.40784L5.91913 12.7578ZM11.6663 21.0452C11.6663 21.0453 11.665 21.045 11.6627 21.0445C11.6651 21.045 11.6663 21.0452 11.6663 21.0452ZM10.7329 20.0797C10.7324 20.0775 10.7323 20.0764 10.7323 20.0764C10.7323 20.0763 10.7325 20.0774 10.7329 20.0797ZM18.3337 11.9548C18.3337 11.9547 18.335 11.955 18.3373 11.9555C18.3349 11.955 18.3337 11.9548 18.3337 11.9548ZM19.2671 12.9203C19.2676 12.9225 19.2678 12.9236 19.2677 12.9237C19.2677 12.9237 19.2675 12.9226 19.2671 12.9203Z" fill="#F7F7F7" stroke="#4F4F4F" stroke-width="5"/>
</svg>
