<svg width="23" height="18" viewBox="0 0 23 18" fill="none" xmlns="http://www.w3.org/2000/svg">
<path d="M11.5 18H0V15.75H6.6125C5.773 12.5887 3.2315 10.1138 0 9.2925C0.736 9.1125 1.5065 9 2.3 9C7.383 9 11.5 13.0275 11.5 18ZM23 9.2925C22.264 9.1125 21.4935 9 20.7 9C17.3305 9 14.398 10.7775 12.788 13.4213C13.1215 14.1638 13.3975 14.94 13.5585 15.75C13.708 16.4813 13.7885 17.235 13.7885 18H16.0885H22.9885V15.75H16.376C17.227 12.5887 19.7685 10.1138 23 9.2925ZM15.686 7.8975C16.583 5.54625 18.2505 3.5775 20.3895 2.2725C15.456 2.43 11.5 6.37875 11.5 11.25C11.5 11.2612 11.5 11.2725 11.5 11.2725C12.5925 9.84375 14.03 8.685 15.686 7.8975ZM10.833 5.45625C9.867 2.9925 7.912 1.00125 5.405 0C7.061 2.0925 8.05 4.7025 8.05 7.54875C8.05 7.785 8.0155 8.01 8.004 8.235C8.4985 8.505 8.9585 8.82 9.407 9.1575C9.6485 7.83 10.1545 6.58125 10.833 5.45625Z" fill="#8B8989"/>
</svg>
