<svg width="319" height="319" viewBox="0 0 319 319" fill="none" xmlns="http://www.w3.org/2000/svg">
<path fill-rule="evenodd" clip-rule="evenodd" d="M159.5 319C247.589 319 319 247.589 319 159.5C319 71.4106 247.589 0 159.5 0C71.4106 0 0 71.4106 0 159.5C0 247.589 71.4106 319 159.5 319ZM90.2304 159C90.2304 151.204 83.9109 144.885 76.1152 144.885C68.3196 144.885 62 151.204 62 159C62 166.796 68.3196 173.115 76.1152 173.115C83.9109 173.115 90.2304 166.796 90.2304 159ZM243.885 144.885C251.68 144.885 258 151.204 258 159C258 166.796 251.68 173.115 243.885 173.115C236.089 173.115 229.769 166.796 229.769 159C229.769 151.204 236.089 144.885 243.885 144.885ZM160 89.2304C167.796 89.2304 174.115 82.9108 174.115 75.1152C174.115 67.3196 167.796 61 160 61C152.204 61 145.885 67.3196 145.885 75.1152C145.885 82.9108 152.204 89.2304 160 89.2304ZM174.115 242.885C174.115 250.68 167.796 257 160 257C152.204 257 145.885 250.68 145.885 242.885C145.885 235.089 152.204 228.769 160 228.769C167.796 228.769 174.115 235.089 174.115 242.885ZM209.335 109.665C214.847 115.177 223.785 115.177 229.297 109.665C234.809 104.153 234.809 95.2155 229.297 89.7031C223.785 84.1908 214.847 84.1908 209.335 89.7031C203.823 95.2155 203.823 104.153 209.335 109.665ZM110.665 228.296C105.153 233.809 96.2153 233.809 90.703 228.296C85.1906 222.784 85.1906 213.847 90.703 208.334C96.2153 202.822 105.153 202.822 110.665 208.334C116.177 213.847 116.177 222.784 110.665 228.296ZM209.334 208.335C203.821 213.847 203.821 222.784 209.334 228.297C214.846 233.809 223.783 233.809 229.296 228.297C234.808 222.784 234.808 213.847 229.296 208.335C223.783 202.822 214.846 202.822 209.334 208.335ZM90.7032 109.665C85.1909 104.153 85.1909 95.2157 90.7032 89.7034C96.2156 84.1911 105.153 84.1911 110.665 89.7034C116.178 95.2157 116.178 104.153 110.665 109.665C105.153 115.178 96.2156 115.178 90.7032 109.665ZM161.612 190.861C179.208 190.861 193.473 176.596 193.473 159C193.473 141.405 179.208 127.14 161.612 127.14C144.017 127.14 129.752 141.405 129.752 159C129.752 176.596 144.017 190.861 161.612 190.861Z" fill="#4F4F4F"/>
</svg>
