<svg width="18" height="18" viewBox="0 0 18 18" fill="none" xmlns="http://www.w3.org/2000/svg">
<path d="M12.9691 0.211373C12.1948 -0.0704575 11.3437 -0.0704575 10.5693 0.211373L6.59388 1.65823C5.95962 1.88907 5.53846 2.48454 5.53846 3.15047V5.68969C6.27758 5.5733 7.03968 5.6445 7.75071 5.90326L11.7261 7.35017C12.7228 7.71289 13.3846 8.64859 13.3846 9.69503V14.8495C13.3846 15.1425 13.3327 15.4267 13.2362 15.6922L16.9446 14.3425C17.5788 14.1117 18 13.5162 18 12.8503V3.15046C18 2.48454 17.5788 1.88907 16.9446 1.65823L12.9691 0.211373ZM8.78695 4.64573C8.42557 4.52271 8.23394 4.13449 8.35883 3.77859C8.48372 3.42271 8.87797 3.23393 9.23935 3.35695L11.6934 4.19234C11.7423 4.20899 11.7954 4.20897 11.8443 4.19228L14.2909 3.35739C14.6522 3.23411 15.0465 3.42259 15.1717 3.77839C15.2969 4.13419 15.1055 4.52256 14.7442 4.64585L12.2977 5.48074C11.9554 5.59752 11.5833 5.59765 11.241 5.48113L8.78695 4.64573ZM5.03084 6.75597C5.8052 6.47414 6.65634 6.47414 7.43068 6.75597L11.4061 8.20288C12.0403 8.43369 12.4615 9.02913 12.4615 9.69503V14.8495C12.4615 15.5154 12.0403 16.1109 11.4061 16.3418L7.43068 17.7886C6.65634 18.0705 5.8052 18.0705 5.03084 17.7886L1.05542 16.3418C0.421154 16.1109 0 15.5154 0 14.8495V9.69503C0 9.02913 0.421154 8.43369 1.05542 8.20288L5.03084 6.75597ZM2.82035 10.5594C2.69544 10.9153 2.88713 11.3034 3.2485 11.4264L5.53836 12.206V14.6594C5.53836 15.036 5.84831 15.3412 6.23067 15.3412C6.61302 15.3412 6.92298 15.036 6.92298 14.6594V12.2056L9.20575 11.4266C9.56705 11.3033 9.7584 10.9149 9.63323 10.5591C9.50806 10.2034 9.11372 10.0148 8.75243 10.1381L6.23039 10.9988L3.70085 10.1377C3.33947 10.0147 2.94526 10.2035 2.82035 10.5594Z" fill="#8B8989"/>
</svg>
