<svg width="32" height="40" viewBox="0 0 32 40" fill="none" xmlns="http://www.w3.org/2000/svg">
<path d="M17.113 0.0017001C16.921 0.0205894 16.7345 0.0790856 16.5641 0.173849C16.3937 0.268612 16.2426 0.397786 16.1196 0.553996C15.9966 0.710206 15.904 0.890393 15.8472 1.08427C15.7903 1.27814 15.7703 1.48191 15.7882 1.68394C15.8245 2.09194 16.0132 2.46809 16.3129 2.72962C16.4613 2.85911 16.6324 2.95657 16.8166 3.01643C17.0008 3.07629 17.1943 3.09738 17.3862 3.07849C23.8777 3.07849 29.0772 8.48288 29.0772 15.3857C29.0772 15.7937 29.2312 16.185 29.5053 16.4735C29.7793 16.762 30.151 16.9241 30.5386 16.9241C30.9262 16.9241 31.2979 16.762 31.572 16.4735C31.846 16.185 32 15.7937 32 15.3857C32 6.83987 25.4355 0.0017001 17.3862 0.0017001C17.3405 -0.000566699 17.2946 -0.000566699 17.2489 0.0017001C17.2031 -0.000564432 17.1573 -0.000564432 17.1115 0.0017001H17.113ZM17.113 6.15529C16.7254 6.19343 16.3681 6.3921 16.1196 6.70758C15.8712 7.02306 15.752 7.42951 15.7882 7.83752C15.8245 8.24553 16.0132 8.62167 16.3129 8.8832C16.6126 9.14473 16.9987 9.27023 17.3862 9.23208C19.7157 9.23208 21.0835 9.75667 21.9077 10.6259C22.7319 11.4951 23.2317 12.9412 23.2317 15.3857C23.2317 15.7937 23.3857 16.185 23.6598 16.4735C23.9338 16.762 24.3055 16.9241 24.6931 16.9241C25.0807 16.9241 25.4524 16.762 25.7265 16.4735C26.0005 16.185 26.1545 15.7937 26.1545 15.3857C26.1545 12.4935 25.5203 10.1059 23.9624 8.46288C22.4046 6.81987 20.1453 6.15529 17.3862 6.15529C17.3405 6.15302 17.2946 6.15302 17.2489 6.15529C17.2031 6.15302 17.1573 6.15302 17.1115 6.15529H17.113ZM6.74449 7.88598C5.41464 7.87829 4.29084 8.25673 3.50169 9.08747C0.780611 11.952 -3.28348 20.5962 4.59773 28.8943C11.8067 36.4848 20.6904 32.9126 23.413 30.0481C25.5831 27.7636 24.5937 22.8684 21.3115 18.0302C20.6948 18.5532 19.9656 20.307 20.3075 20.9147C21.9311 23.7976 22.3988 26.3575 21.2662 27.5482C19.5228 29.3835 14.6505 27.2667 10.3979 22.79C6.14386 18.3086 4.13155 13.1858 5.87789 11.3474C6.9447 10.2228 9.16745 10.5782 11.7234 12.0689C12.3211 12.4166 14.0207 11.6689 14.5088 11.0105C11.7176 9.00593 8.95994 7.89983 6.74595 7.88598H6.74449ZM17.3862 12.3089C16.09 12.3089 14.9837 13.1934 14.6009 14.4242L10.6727 14.9057C10.4976 14.8974 10.323 14.9293 10.1608 14.9991C9.99861 15.0688 9.85275 15.1749 9.7333 15.3098C9.61385 15.4447 9.52366 15.6054 9.46897 15.7806C9.41428 15.9558 9.39639 16.1415 9.41653 16.3247C9.43668 16.5079 9.49439 16.6843 9.58566 16.8418C9.67694 16.9992 9.7996 17.1339 9.94518 17.2365C10.0908 17.3392 10.2558 17.4073 10.4288 17.4362C10.6018 17.4652 10.7788 17.4542 10.9474 17.404L14.8741 16.9733C15.1226 17.4102 15.4631 17.7686 15.8796 18.0302L15.4689 22.1638C15.4213 22.3413 15.4109 22.5276 15.4383 22.7098C15.4658 22.8919 15.5305 23.0656 15.628 23.2189C15.7255 23.3721 15.8535 23.5013 16.003 23.5974C16.1526 23.6934 16.3202 23.7542 16.4942 23.7754C16.6683 23.7966 16.8446 23.7778 17.0111 23.7202C17.1775 23.6626 17.3301 23.5677 17.4583 23.4419C17.5865 23.3162 17.6872 23.1626 17.7535 22.9919C17.8198 22.8212 17.85 22.6373 17.8422 22.4531L18.2996 18.3178C18.885 18.1139 19.3944 17.7206 19.7552 17.1942C20.116 16.6677 20.3098 16.0348 20.309 15.3857C20.309 14.5696 20.0011 13.7871 19.4529 13.21C18.9048 12.633 18.1614 12.3089 17.3862 12.3089ZM7.2472 33.9433C4.77309 35.1356 3.09397 37.4001 3.09397 40H20.1731C20.1731 38.3939 19.0654 36.5186 17.7077 35.7217C16.7783 35.8986 15.7831 36.0094 14.785 36.0094C12.1461 36.0169 9.55023 35.3052 7.25013 33.9433H7.2472Z" fill="#AFAFAF"/>
</svg>
