<svg width="98" height="40" viewBox="0 0 98 40" fill="none" xmlns="http://www.w3.org/2000/svg">
<path d="M23.3075 15.3846C23.3075 15.5478 23.2426 15.7044 23.1272 15.8198C23.0118 15.9352 22.8553 16 22.6921 16L15.3077 16C15.1445 16 14.988 15.9352 14.8726 15.8198C14.7572 15.7044 14.6924 15.5478 14.6924 15.3846C14.6924 15.2214 14.7572 15.0649 14.8726 14.9495C14.988 14.8341 15.1445 14.7693 15.3077 14.7693L22.6921 14.7693C22.8553 14.7693 23.0118 14.8341 23.1272 14.9495C23.2426 15.0649 23.3075 15.2214 23.3075 15.3846ZM11.0471 8.23562C11.0936 8.34807 11.1725 8.44419 11.2737 8.51183C11.3749 8.57947 11.4938 8.61558 11.6155 8.61561L14.6924 8.61561L14.6924 10.4617C14.6924 10.6249 14.7572 10.7814 14.8726 10.8968C14.988 11.0122 15.1445 11.0771 15.3077 11.0771L22.6921 11.0771C22.8553 11.0771 23.0118 11.0122 23.1272 10.8968C23.2426 10.7814 23.3075 10.6249 23.3075 10.4617L23.3075 8.61561L26.3843 8.61561C26.5061 8.6157 26.6251 8.57966 26.7264 8.51205C26.8277 8.44444 26.9066 8.3483 26.9533 8.2358C26.9999 8.12329 27.0121 7.99949 26.9883 7.88006C26.9645 7.76062 26.9058 7.65093 26.8196 7.56487L19.4353 0.180477C19.3781 0.123262 19.3103 0.0778733 19.2356 0.0469055C19.1608 0.0159376 19.0808 -1.11284e-06 18.9999 -1.10577e-06C18.919 -1.0987e-06 18.839 0.0159377 18.7643 0.0469055C18.6896 0.0778734 18.6217 0.123262 18.5645 0.180477L11.1802 7.56487C11.0941 7.65098 11.0356 7.76067 11.0119 7.88006C10.9882 7.99945 11.0005 8.12319 11.0471 8.23562ZM22.6921 12.3078L15.3077 12.3078C15.1445 12.3078 14.988 12.3726 14.8726 12.488C14.7572 12.6034 14.6924 12.76 14.6924 12.9232C14.6924 13.0864 14.7572 13.2429 14.8726 13.3583C14.988 13.4737 15.1445 13.5385 15.3077 13.5385L22.6921 13.5385C22.8553 13.5385 23.0118 13.4737 23.1272 13.3583C23.2426 13.2429 23.3075 13.0864 23.3075 12.9232C23.3075 12.76 23.2426 12.6034 23.1272 12.488C23.0118 12.3726 22.8553 12.3078 22.6921 12.3078Z" fill="#333333"/>
<path d="M89.0767 15.3846C89.0767 15.5478 89.0078 15.7044 88.8852 15.8198C88.7625 15.9352 88.5962 16 88.4228 16L80.5769 16C80.4035 16 80.2372 15.9352 80.1146 15.8198C79.992 15.7044 79.9231 15.5478 79.9231 15.3846C79.9231 15.2214 79.992 15.0649 80.1146 14.9495C80.2372 14.8341 80.4035 14.7693 80.5769 14.7693L88.4228 14.7693C88.5962 14.7693 88.7625 14.8341 88.8852 14.9495C89.0078 15.0649 89.0767 15.2214 89.0767 15.3846ZM76.05 8.23562C76.0995 8.34807 76.1833 8.44419 76.2908 8.51183C76.3983 8.57947 76.5247 8.61558 76.654 8.61561L79.9231 8.61561L79.9231 10.4617C79.9231 10.6249 79.992 10.7814 80.1146 10.8968C80.2372 11.0122 80.4035 11.0771 80.5769 11.0771L88.4228 11.0771C88.5962 11.0771 88.7625 11.0122 88.8852 10.8968C89.0078 10.7814 89.0767 10.6249 89.0767 10.4617L89.0767 8.61561L92.3458 8.61561C92.4752 8.6157 92.6017 8.57966 92.7093 8.51205C92.8169 8.44444 92.9008 8.3483 92.9503 8.2358C92.9999 8.12329 93.0128 7.99949 92.9875 7.88006C92.9623 7.76062 92.8999 7.65093 92.8084 7.56487L84.9625 0.180476C84.9018 0.123262 84.8296 0.0778728 84.7503 0.046905C84.6709 0.0159371 84.5858 -1.46898e-06 84.4999 -1.46146e-06C84.414 -1.45395e-06 84.3289 0.0159371 84.2495 0.046905C84.1701 0.0778729 84.098 0.123262 84.0373 0.180476L76.1914 7.56487C76.1 7.65098 76.0378 7.76067 76.0126 7.88006C75.9875 7.99945 76.0005 8.12319 76.05 8.23562ZM88.4228 12.3078L80.5769 12.3078C80.4035 12.3078 80.2372 12.3726 80.1146 12.488C79.992 12.6034 79.9231 12.76 79.9231 12.9232C79.9231 13.0864 79.992 13.2429 80.1146 13.3583C80.2372 13.4737 80.4035 13.5385 80.5769 13.5385L88.4228 13.5385C88.5962 13.5385 88.7625 13.4737 88.8852 13.3583C89.0078 13.2429 89.0767 13.0864 89.0767 12.9232C89.0767 12.76 89.0078 12.6034 88.8852 12.488C88.7625 12.3726 88.5962 12.3078 88.4228 12.3078Z" fill="#333333"/>
<path fill-rule="evenodd" clip-rule="evenodd" d="M41.1766 24.1176V14.1615C41.1766 13.8124 41.4596 13.5294 41.8087 13.5294C42.1216 13.5294 42.3874 13.3005 42.4338 12.9911L44.1178 1.76471C44.1178 1.17647 44.4707 0 45.8825 0H50.5884H54.1178C56.0001 0 56.4707 1.56863 56.4707 2.35294L58.1509 12.994C58.1996 13.3023 58.4653 13.5294 58.7775 13.5294C59.1279 13.5294 59.4119 13.8134 59.4119 14.1638V24.1176H56.8822C56.3299 24.1176 55.8825 24.5654 55.8825 25.1176V31.7647H50.5884H44.706V26.4706V25.1173C44.706 24.565 44.2583 24.1176 43.706 24.1176H41.1766ZM44.3003 12.3735L45.7492 3.19698C45.826 2.71093 46.2449 2.35294 46.737 2.35294H53.8515C54.3436 2.35294 54.7626 2.71093 54.8393 3.19698L56.2882 12.3735C56.3841 12.9804 55.9149 13.5294 55.3005 13.5294H45.2881C44.6736 13.5294 44.2045 12.9804 44.3003 12.3735ZM42.9413 20C42.9413 19.8039 43.059 19.4118 43.5296 19.4118H44.706C44.9021 19.4118 45.2943 19.5294 45.2943 20V21.1765C45.2943 21.3725 45.1766 21.7647 44.706 21.7647H43.5296C43.3335 21.7647 42.9413 21.6471 42.9413 21.1765V20ZM55.8825 19.4118C55.4119 19.4118 55.2943 19.8039 55.2943 20V21.1765C55.2943 21.6471 55.6864 21.7647 55.8825 21.7647H57.059C57.5296 21.7647 57.6472 21.3725 57.6472 21.1765V20C57.6472 19.5294 57.2551 19.4118 57.059 19.4118H55.8825ZM46.8825 17.6471C46.3302 17.6471 45.8825 18.0948 45.8825 18.6471V28.4118C45.8825 28.964 46.3302 29.4118 46.8825 29.4118H53.706C54.2583 29.4118 54.706 28.964 54.706 28.4118V18.6471C54.706 18.0948 54.2583 17.6471 53.706 17.6471H46.8825ZM47.059 20.8824C47.059 20.7199 47.1907 20.5882 47.3531 20.5882C47.5155 20.5882 47.6472 20.7199 47.6472 20.8824V27.9412C47.6472 28.1036 47.5155 28.2353 47.3531 28.2353C47.1907 28.2353 47.059 28.1036 47.059 27.9412V20.8824ZM48.8237 20.5882C48.6612 20.5882 48.5296 20.7199 48.5296 20.8824V27.9412C48.5296 28.1036 48.6612 28.2353 48.8237 28.2353C48.9861 28.2353 49.1178 28.1036 49.1178 27.9412V20.8824C49.1178 20.7199 48.9861 20.5882 48.8237 20.5882ZM51.4707 20.8824C51.4707 20.7199 51.6024 20.5882 51.7649 20.5882C51.9273 20.5882 52.059 20.7199 52.059 20.8824V27.9412C52.059 28.1036 51.9273 28.2353 51.7649 28.2353C51.6024 28.2353 51.4707 28.1036 51.4707 27.9412V20.8824ZM53.2354 20.5882C53.073 20.5882 52.9413 20.7199 52.9413 20.8824V27.9412C52.9413 28.1036 53.073 28.2353 53.2354 28.2353C53.3979 28.2353 53.5296 28.1036 53.5296 27.9412V20.8824C53.5296 20.7199 53.3979 20.5882 53.2354 20.5882ZM50.0001 20.8824C50.0001 20.7199 50.1318 20.5882 50.2943 20.5882C50.4567 20.5882 50.5884 20.7199 50.5884 20.8824V27.9412C50.5884 28.1036 50.4567 28.2353 50.2943 28.2353C50.1318 28.2353 50.0001 28.1036 50.0001 27.9412V20.8824ZM35.706 17.6471H39.5884C40.1407 17.6471 40.5884 18.0948 40.5884 18.6471V24.1176H39.6931C39.1408 24.1176 38.8237 24.5654 38.8237 25.1176V38.4118C38.8237 38.5586 38.792 38.698 38.7352 38.8235H40.4091C39.8581 38.822 39.4119 38.3749 39.4119 37.8235V25.7059C39.4119 25.1536 39.8596 24.7059 40.4119 24.7059H43.1178C43.6701 24.7059 44.1178 25.1536 44.1178 25.7059V37.8235C44.1178 38.3749 43.6716 38.822 43.1206 38.8235H57.4679C56.9169 38.822 56.4707 38.3749 56.4707 37.8235V25.7059C56.4707 25.1536 56.9184 24.7059 57.4707 24.7059H60.1766C60.7289 24.7059 61.1766 25.1536 61.1766 25.7059V37.8235C61.1766 38.3749 60.7304 38.822 60.1794 38.8235H61.8533C61.7965 38.698 61.7648 38.5586 61.7648 38.4118V25.1176C61.7648 24.5654 61.4477 24.1176 60.8954 24.1176H60.0001V18.6471C60.0001 18.0948 60.4478 17.6471 61.0001 17.6471H64.8825C65.4348 17.6471 65.8825 18.0948 65.8825 18.6471V20H97.059V22.3529H96.2725C96.2702 22.4364 96.2673 22.5272 96.2638 22.6246C96.2453 23.1448 96.2081 23.8523 96.1334 24.5986C96.059 25.3429 95.9463 26.1365 95.7742 26.825C95.655 27.302 95.4979 27.7696 95.2797 28.1355C95.2893 28.3607 95.2943 28.5904 95.2943 28.8235C95.2943 31.7474 94.5148 34.1176 93.5364 34.1176C92.558 34.1176 91.7648 31.7474 91.7648 28.8235C91.7648 25.8997 92.558 23.5294 93.5364 23.5294C94.2058 23.5294 94.7821 24.6389 95.0793 26.2761C95.1947 25.7254 95.2779 25.1141 95.3374 24.519C95.4098 23.7948 95.4462 23.1052 95.4644 22.596C95.4674 22.5095 95.47 22.4282 95.4721 22.3529H91.5666C91.5643 22.4364 91.5614 22.5272 91.558 22.6246C91.5394 23.1448 91.5022 23.8523 91.4276 24.5986C91.3531 25.3429 91.2405 26.1365 91.0683 26.825C90.9491 27.302 90.792 27.7696 90.5738 28.1355C90.5834 28.3607 90.5884 28.5904 90.5884 28.8235C90.5884 31.7474 89.8089 34.1176 88.8305 34.1176C87.8521 34.1176 87.059 31.7474 87.059 28.8235C87.059 25.8997 87.8521 23.5294 88.8305 23.5294C89.4999 23.5294 90.0762 24.6389 90.3734 26.2761C90.4888 25.7254 90.572 25.1141 90.6315 24.519C90.7039 23.7948 90.7403 23.1052 90.7585 22.596C90.7616 22.5095 90.7641 22.4282 90.7663 22.3529H86.8607C86.8584 22.4364 86.8556 22.5272 86.8521 22.6246C86.8335 23.1448 86.7963 23.8523 86.7217 24.5986C86.6472 25.3429 86.5346 26.1365 86.3624 26.825C86.2432 27.302 86.0861 27.7696 85.8679 28.1355C85.8775 28.3607 85.8825 28.5904 85.8825 28.8235C85.8825 31.7474 85.103 34.1176 84.1246 34.1176C83.1462 34.1176 82.3531 31.7474 82.3531 28.8235C82.3531 25.8997 83.1462 23.5294 84.1246 23.5294C84.794 23.5294 85.3703 24.6389 85.6675 26.2761C85.783 25.7254 85.8661 25.1141 85.9256 24.519C85.9981 23.7948 86.0344 23.1052 86.0526 22.596C86.0557 22.5095 86.0582 22.4282 86.0604 22.3529H81.5666C81.5643 22.4364 81.5614 22.5272 81.558 22.6246C81.5394 23.1448 81.5022 23.8523 81.4276 24.5986C81.3531 25.3429 81.2405 26.1365 81.0683 26.825C80.9491 27.302 80.792 27.7696 80.5738 28.1355C80.5834 28.3607 80.5884 28.5904 80.5884 28.8235C80.5884 31.7474 79.8089 34.1176 78.8305 34.1176C77.8521 34.1176 77.059 31.7474 77.059 28.8235C77.059 25.8997 77.8521 23.5294 78.8305 23.5294C79.4999 23.5294 80.0762 24.6389 80.3734 26.2761C80.4888 25.7254 80.572 25.1141 80.6315 24.519C80.7039 23.7948 80.7403 23.1052 80.7585 22.596C80.7616 22.5095 80.7641 22.4282 80.7663 22.3529H76.8607C76.8584 22.4364 76.8556 22.5272 76.8521 22.6246C76.8335 23.1448 76.7963 23.8523 76.7217 24.5986C76.6472 25.3429 76.5346 26.1365 76.3624 26.825C76.2432 27.302 76.0861 27.7696 75.8679 28.1355C75.8775 28.3607 75.8825 28.5904 75.8825 28.8235C75.8825 31.7474 75.103 34.1176 74.1246 34.1176C73.1462 34.1176 72.3531 31.7474 72.3531 28.8235C72.3531 25.8997 73.1462 23.5294 74.1246 23.5294C74.794 23.5294 75.3703 24.6389 75.6675 26.2761C75.783 25.7254 75.8661 25.1141 75.9256 24.519C75.9981 23.7948 76.0344 23.1052 76.0526 22.596C76.0557 22.5095 76.0582 22.4282 76.0604 22.3529H65.8825V38.4118C65.8825 38.5586 65.8509 38.698 65.794 38.8235H97V40H0.529411V38.8235H34.7945C34.7376 38.698 34.706 38.5586 34.706 38.4118V22.3529H24.5281C24.5302 22.4282 24.5328 22.5095 24.5359 22.596C24.5541 23.1052 24.5904 23.7948 24.6629 24.519C24.7224 25.1141 24.8055 25.7254 24.921 26.2761C25.2182 24.6389 25.7945 23.5294 26.4639 23.5294C27.4423 23.5294 28.2354 25.8997 28.2354 28.8235C28.2354 31.7474 27.4423 34.1176 26.4639 34.1176C25.4855 34.1176 24.706 31.7474 24.706 28.8235C24.706 28.5904 24.711 28.3607 24.7206 28.1355C24.5024 27.7696 24.3453 27.302 24.226 26.825C24.0539 26.1365 23.9412 25.3429 23.8668 24.5986C23.7922 23.8523 23.755 23.1448 23.7364 22.6246C23.7329 22.5272 23.7301 22.4364 23.7278 22.3529H19.8222C19.8244 22.4282 19.8269 22.5095 19.83 22.596C19.8482 23.1052 19.8845 23.7948 19.957 24.519C20.0165 25.1141 20.0997 25.7254 20.2151 26.2761C20.5123 24.6389 21.0886 23.5294 21.758 23.5294C22.7364 23.5294 23.5295 25.8997 23.5295 28.8235C23.5295 31.7474 22.7364 34.1176 21.758 34.1176C20.7796 34.1176 20.0001 31.7474 20.0001 28.8235C20.0001 28.5904 20.0051 28.3607 20.0147 28.1355C19.7965 27.7696 19.6394 27.302 19.5202 26.825C19.348 26.1365 19.2354 25.3429 19.1609 24.5986C19.0863 23.8523 19.0491 23.1448 19.0305 22.6246C19.0271 22.5272 19.0242 22.4364 19.0219 22.3529H14.5281C14.5302 22.4282 14.5328 22.5095 14.5359 22.596C14.5541 23.1052 14.5904 23.7948 14.6629 24.519C14.7224 25.1141 14.8055 25.7254 14.921 26.2761C15.2182 24.6389 15.7945 23.5294 16.4639 23.5294C17.4423 23.5294 18.2354 25.8997 18.2354 28.8235C18.2354 31.7474 17.4423 34.1176 16.4639 34.1176C15.4855 34.1176 14.706 31.7474 14.706 28.8235C14.706 28.5904 14.711 28.3607 14.7206 28.1355C14.5024 27.7696 14.3453 27.302 14.226 26.825C14.0539 26.1365 13.9412 25.3429 13.8668 24.5986C13.7922 23.8523 13.755 23.1448 13.7364 22.6246C13.7329 22.5272 13.7301 22.4364 13.7278 22.3529H9.82224C9.82437 22.4282 9.82693 22.5095 9.83002 22.596C9.84821 23.1052 9.88454 23.7948 9.95697 24.519C10.0165 25.1141 10.0997 25.7254 10.2151 26.2761C10.5123 24.6389 11.0886 23.5294 11.758 23.5294C12.7364 23.5294 13.5295 25.8997 13.5295 28.8235C13.5295 31.7474 12.7364 34.1176 11.758 34.1176C10.7796 34.1176 10.0001 31.7474 10.0001 28.8235C10.0001 28.5904 10.0051 28.3607 10.0147 28.1355C9.79651 27.7696 9.63942 27.302 9.52016 26.825C9.34804 26.1365 9.23536 25.3429 9.16094 24.5986C9.0863 23.8523 9.04911 23.1448 9.03053 22.6246C9.02705 22.5272 9.02423 22.4364 9.02193 22.3529H5.11636C5.11848 22.4282 5.12105 22.5095 5.12414 22.596C5.14233 23.1052 5.17866 23.7948 5.25109 24.519C5.31059 25.1141 5.39378 25.7254 5.5092 26.2761C5.80644 24.6389 6.3827 23.5294 7.0521 23.5294C8.0305 23.5294 8.82366 25.8997 8.82366 28.8235C8.82366 31.7474 8.0305 34.1176 7.0521 34.1176C6.07369 34.1176 5.29425 31.7474 5.29425 28.8235C5.29425 28.5904 5.2992 28.3607 5.30882 28.1355C5.09063 27.7696 4.93354 27.302 4.81428 26.825C4.64216 26.1365 4.52948 25.3429 4.45506 24.5986C4.38042 23.8523 4.34323 23.1448 4.32465 22.6246C4.32117 22.5272 4.31834 22.4364 4.31604 22.3529H3.52954V20H34.706V18.6471C34.706 18.0948 35.1537 17.6471 35.706 17.6471Z" fill="#333333"/>
</svg>
