<svg width="94" height="40" viewBox="0 0 94 40" fill="none" xmlns="http://www.w3.org/2000/svg">
<path d="M10.6927 3.80019C10.6927 3.62678 10.7575 3.46048 10.8729 3.33786C10.9883 3.21525 11.1448 3.14636 11.308 3.14636H18.6924C18.8556 3.14636 19.0121 3.21525 19.1275 3.33786C19.2429 3.46048 19.3078 3.62678 19.3078 3.80019C19.3078 3.97359 19.2429 4.1399 19.1275 4.26251C19.0121 4.38513 18.8556 4.45402 18.6924 4.45402H11.308C11.1448 4.45402 10.9883 4.38513 10.8729 4.26251C10.7575 4.1399 10.6927 3.97359 10.6927 3.80019ZM22.953 11.396C22.9065 11.2765 22.8276 11.1744 22.7264 11.1025C22.6253 11.0307 22.5063 10.9923 22.3846 10.9923H19.3078V9.0308C19.3078 8.85739 19.2429 8.69109 19.1275 8.56848C19.0121 8.44586 18.8556 8.37697 18.6924 8.37697H11.308C11.1448 8.37697 10.9883 8.44586 10.8729 8.56848C10.7575 8.69109 10.6927 8.85739 10.6927 9.0308V10.9923H7.61585C7.49407 10.9922 7.375 11.0305 7.27372 11.1023C7.17243 11.1741 7.09348 11.2763 7.04687 11.3958C7.00025 11.5154 6.98807 11.6469 7.01185 11.7738C7.03563 11.9007 7.09432 12.0172 7.18048 12.1087L14.5648 19.9546C14.622 20.0154 14.6899 20.0636 14.7646 20.0965C14.8393 20.1294 14.9193 20.1464 15.0002 20.1464C15.0811 20.1464 15.1612 20.1294 15.2359 20.0965C15.3106 20.0636 15.3784 20.0154 15.4356 19.9546L22.82 12.1087C22.906 12.0172 22.9645 11.9007 22.9882 11.7738C23.0119 11.6469 22.9997 11.5155 22.953 11.396ZM11.308 7.06932H18.6924C18.8556 7.06932 19.0121 7.00044 19.1275 6.87782C19.2429 6.7552 19.3078 6.5889 19.3078 6.41549C19.3078 6.24209 19.2429 6.07579 19.1275 5.95317C19.0121 5.83055 18.8556 5.76167 18.6924 5.76167H11.308C11.1448 5.76167 10.9883 5.83055 10.8729 5.95317C10.7575 6.07579 10.6927 6.24209 10.6927 6.41549C10.6927 6.5889 10.7575 6.7552 10.8729 6.87782C10.9883 7.00044 11.1448 7.06932 11.308 7.06932Z" fill="#333333"/>
<path d="M76.6927 3.80019C76.6927 3.62678 76.7575 3.46048 76.8729 3.33786C76.9883 3.21525 77.1448 3.14636 77.308 3.14636H84.6924C84.8556 3.14636 85.0121 3.21525 85.1275 3.33786C85.2429 3.46048 85.3078 3.62678 85.3078 3.80019C85.3078 3.97359 85.2429 4.1399 85.1275 4.26251C85.0121 4.38513 84.8556 4.45402 84.6924 4.45402H77.308C77.1448 4.45402 76.9883 4.38513 76.8729 4.26251C76.7575 4.1399 76.6927 3.97359 76.6927 3.80019ZM88.953 11.396C88.9065 11.2765 88.8276 11.1744 88.7264 11.1025C88.6253 11.0307 88.5063 10.9923 88.3846 10.9923H85.3078V9.0308C85.3078 8.85739 85.2429 8.69109 85.1275 8.56848C85.0121 8.44586 84.8556 8.37697 84.6924 8.37697H77.308C77.1448 8.37697 76.9883 8.44586 76.8729 8.56848C76.7575 8.69109 76.6927 8.85739 76.6927 9.0308V10.9923H73.6158C73.4941 10.9922 73.375 11.0305 73.2737 11.1023C73.1724 11.1741 73.0935 11.2763 73.0469 11.3958C73.0003 11.5154 72.9881 11.6469 73.0119 11.7738C73.0356 11.9007 73.0943 12.0172 73.1805 12.1087L80.5648 19.9546C80.622 20.0154 80.6899 20.0636 80.7646 20.0965C80.8393 20.1294 80.9193 20.1464 81.0002 20.1464C81.0811 20.1464 81.1612 20.1294 81.2359 20.0965C81.3106 20.0636 81.3784 20.0154 81.4356 19.9546L88.82 12.1087C88.906 12.0172 88.9645 11.9007 88.9882 11.7738C89.0119 11.6469 88.9997 11.5155 88.953 11.396ZM77.308 7.06932H84.6924C84.8556 7.06932 85.0121 7.00044 85.1275 6.87782C85.2429 6.7552 85.3078 6.5889 85.3078 6.41549C85.3078 6.24209 85.2429 6.07579 85.1275 5.95317C85.0121 5.83055 84.8556 5.76167 84.6924 5.76167H77.308C77.1448 5.76167 76.9883 5.83055 76.8729 5.95317C76.7575 6.07579 76.6927 6.24209 76.6927 6.41549C76.6927 6.5889 76.7575 6.7552 76.8729 6.87782C76.9883 7.00044 77.1448 7.06932 77.308 7.06932Z" fill="#333333"/>
<path fill-rule="evenodd" clip-rule="evenodd" d="M37.4634 24V14.0924C37.4634 13.745 37.745 13.4634 38.0924 13.4634C38.4038 13.4634 38.6683 13.2356 38.7145 12.9277L40.3902 1.7561C40.3902 1.17073 40.7415 0 42.1463 0H46.8293H50.3415C52.2146 0 52.6829 1.56098 52.6829 2.34146L54.3549 12.9306C54.4033 13.2374 54.6678 13.4634 54.9785 13.4634C55.3271 13.4634 55.6098 13.7461 55.6098 14.0947V24H53.0974C52.5451 24 52.0976 24.4477 52.0976 25V31.6098H46.8293H40.9756V26.3415V24.9998C40.9756 24.4475 40.5279 24 39.9756 24H37.4634ZM40.5727 12.3074L42.013 3.18549C42.0898 2.69944 42.5087 2.34146 43.0008 2.34146H50.0723C50.5644 2.34146 50.9833 2.69944 51.0601 3.1855L52.5004 12.3074C52.5962 12.9144 52.1271 13.4634 51.5126 13.4634H41.5605C40.946 13.4634 40.4769 12.9144 40.5727 12.3074ZM39.2195 19.9025C39.2195 19.7073 39.3366 19.3171 39.8049 19.3171H40.9756C41.1707 19.3171 41.561 19.4342 41.561 19.9025V21.0732C41.561 21.2683 41.4439 21.6586 40.9756 21.6586H39.8049C39.6097 21.6586 39.2195 21.5415 39.2195 21.0732V19.9025ZM52.0976 19.3171C51.6293 19.3171 51.5122 19.7073 51.5122 19.9025V21.0732C51.5122 21.5415 51.9024 21.6586 52.0976 21.6586H53.2683C53.7366 21.6586 53.8537 21.2683 53.8537 21.0732V19.9025C53.8537 19.4342 53.4634 19.3171 53.2683 19.3171H52.0976ZM43.1463 17.561C42.594 17.561 42.1463 18.0087 42.1463 18.561V28.2683C42.1463 28.8206 42.594 29.2683 43.1463 29.2683H49.9268C50.4791 29.2683 50.9268 28.8206 50.9268 28.2683V18.561C50.9268 18.0087 50.4791 17.561 49.9268 17.561H43.1463ZM43.317 20.7805C43.317 20.6188 43.4481 20.4878 43.6097 20.4878C43.7714 20.4878 43.9024 20.6188 43.9024 20.7805V27.8049C43.9024 27.9665 43.7714 28.0976 43.6097 28.0976C43.4481 28.0976 43.317 27.9665 43.317 27.8049V20.7805ZM45.0731 20.4878C44.9115 20.4878 44.7805 20.6188 44.7805 20.7805V27.8049C44.7805 27.9665 44.9115 28.0976 45.0731 28.0976C45.2348 28.0976 45.3658 27.9665 45.3658 27.8049V20.7805C45.3658 20.6188 45.2348 20.4878 45.0731 20.4878ZM47.7073 20.7805C47.7073 20.6188 47.8383 20.4878 48 20.4878C48.1616 20.4878 48.2926 20.6188 48.2926 20.7805V27.8049C48.2926 27.9665 48.1616 28.0976 48 28.0976C47.8383 28.0976 47.7073 27.9665 47.7073 27.8049V20.7805ZM49.4634 20.4878C49.3017 20.4878 49.1707 20.6188 49.1707 20.7805V27.8049C49.1707 27.9665 49.3017 28.0976 49.4634 28.0976C49.625 28.0976 49.7561 27.9665 49.7561 27.8049V20.7805C49.7561 20.6188 49.625 20.4878 49.4634 20.4878ZM46.2439 20.7805C46.2439 20.6188 46.3749 20.4878 46.5365 20.4878C46.6982 20.4878 46.8292 20.6188 46.8292 20.7805V27.8049C46.8292 27.9665 46.6982 28.0976 46.5365 28.0976C46.3749 28.0976 46.2439 27.9665 46.2439 27.8049V20.7805ZM32.0244 17.561H35.878C36.4303 17.561 36.878 18.0087 36.878 18.561V24H35.9918C35.4395 24 35.1219 24.4477 35.1219 25V38.2195C35.1219 38.2793 35.1167 38.3378 35.1066 38.3947L36.0506 38.3883C35.8402 38.205 35.7073 37.9351 35.7073 37.6342V25.5854C35.7073 25.0331 36.155 24.5854 36.7073 24.5854H39.3902C39.9425 24.5854 40.3902 25.0331 40.3902 25.5854V37.6342C40.3902 37.9204 40.27 38.1786 40.0772 38.3609L52.9138 38.2733C52.7696 38.1 52.6829 37.8772 52.6829 37.6342V25.5854C52.6829 25.0331 53.1306 24.5854 53.6829 24.5854H56.3659C56.9181 24.5854 57.3659 25.0331 57.3659 25.5854V37.6342C57.3659 37.8639 57.2884 38.0755 57.1582 38.2444L57.9514 38.239L57.9512 38.2195V25C57.9512 24.4477 57.6337 24 57.0814 24H56.1951V18.561C56.1951 18.0087 56.6429 17.561 57.1951 17.561H61.0488C61.6011 17.561 62.0488 18.0087 62.0488 18.561V24.5854H93.0732V26.9268H92.2925C92.2902 27.0099 92.2874 27.1003 92.2839 27.1972C92.2654 27.7149 92.2284 28.419 92.1541 29.1617C92.0801 29.9024 91.9679 30.6922 91.7966 31.3775C91.6777 31.8533 91.5208 32.32 91.3027 32.6848C91.3122 32.9078 91.3171 33.1351 91.3171 33.3659C91.3171 35.3809 90.9451 37.1316 90.393 38.0178L93 38V39.8049H0V38.6341L3.34026 38.6114C2.44551 38.3624 1.75611 36.109 1.75611 33.3659C1.75611 33.1351 1.76099 32.9078 1.77046 32.6848C1.55235 32.32 1.39553 31.8533 1.27656 31.3775C1.10525 30.6922 0.993111 29.9024 0.919043 29.1617C0.844767 28.419 0.807753 27.7149 0.789264 27.1972C0.785805 27.1003 0.782991 27.0099 0.780702 26.9268H0V24.5854H31.0244V18.561C31.0244 18.0087 31.4721 17.561 32.0244 17.561ZM69.5188 38.1601L62.0488 38.211V26.9268H72.1751C72.173 27.0017 72.1704 27.0825 72.1674 27.1686C72.1493 27.6753 72.1131 28.3615 72.041 29.0821C71.982 29.6726 71.8995 30.2791 71.7852 30.8258C71.4891 29.1994 70.9162 28.0976 70.2507 28.0976C69.2771 28.0976 68.4878 30.4563 68.4878 33.3659C68.4878 35.4952 68.9105 37.3294 69.5188 38.1601ZM91.4922 26.9268H87.6095C87.6072 27.0099 87.6044 27.1003 87.601 27.1972C87.5825 27.7149 87.5455 28.419 87.4712 29.1617C87.3971 29.9024 87.285 30.6922 87.1137 31.3775C86.9947 31.8533 86.8379 32.32 86.6198 32.6848C86.6293 32.9078 86.6341 33.1351 86.6341 33.3659C86.6341 35.4055 86.253 37.1743 85.6897 38.0498L88.7466 38.029C88.1866 37.1465 87.8049 35.3894 87.8049 33.3659C87.8049 30.4563 88.5942 28.0976 89.5678 28.0976C90.2332 28.0976 90.8062 29.1994 91.1022 30.8258C91.2166 30.2791 91.2991 29.6726 91.3581 29.0821C91.4302 28.3615 91.4663 27.6753 91.4844 27.1686C91.4875 27.0825 91.4901 27.0017 91.4922 26.9268ZM86.8092 26.9268H82.9266C82.9243 27.0099 82.9215 27.1003 82.918 27.1972C82.8996 27.7149 82.8625 28.419 82.7883 29.1617C82.7142 29.9024 82.6021 30.6922 82.4307 31.3775C82.3118 31.8533 82.155 32.32 81.9368 32.6848C81.9463 32.9078 81.9512 33.1351 81.9512 33.3659C81.9512 35.4307 81.5606 37.218 80.9858 38.0819L84.0842 38.0608C83.513 37.1891 83.1219 35.414 83.1219 33.3659C83.1219 30.4563 83.9112 28.0976 84.8849 28.0976C85.5503 28.0976 86.1233 29.1994 86.4193 30.8258C86.5336 30.2791 86.6161 29.6726 86.6752 29.0821C86.7472 28.3615 86.7834 27.6753 86.8015 27.1686C86.8046 27.0825 86.8071 27.0017 86.8092 26.9268ZM82.1263 26.9268H77.6583C77.656 27.0099 77.6532 27.1003 77.6497 27.1972C77.6312 27.7149 77.5942 28.419 77.5199 29.1617C77.4459 29.9024 77.3337 30.6922 77.1624 31.3775C77.0435 31.8533 76.8867 32.3199 76.6686 32.6847C76.6781 32.9077 76.6829 33.1351 76.6829 33.3659C76.6829 35.4599 76.2812 37.2685 75.693 38.118L79.4224 38.0926C78.8398 37.2328 78.439 35.4392 78.439 33.3659C78.439 30.4563 79.2283 28.0976 80.2019 28.0976C80.8674 28.0976 81.4403 29.1994 81.7364 30.8258C81.8507 30.2791 81.9332 29.6726 81.9922 29.0821C82.0643 28.3615 82.1005 27.6753 82.1186 27.1686C82.1216 27.0825 82.1242 27.0017 82.1263 26.9268ZM76.858 26.9268H72.9754C72.9731 27.0099 72.9703 27.1003 72.9669 27.1972C72.9484 27.7149 72.9113 28.419 72.8371 29.1617C72.763 29.9024 72.6509 30.6922 72.4796 31.3775C72.3606 31.8533 72.2038 32.32 71.9856 32.6848C71.9951 32.9078 72 33.1351 72 33.3659C72 35.4866 71.5879 37.3147 70.9875 38.1501L74.1789 38.1283C73.5829 37.2833 73.1707 35.4684 73.1707 33.3659C73.1707 30.4563 73.96 28.0976 74.9337 28.0976C75.5991 28.0976 76.172 29.1993 76.4681 30.8256C76.5824 30.2789 76.6649 29.6725 76.7239 29.0821C76.796 28.3615 76.8321 27.6753 76.8502 27.1686C76.8533 27.0825 76.8559 27.0017 76.858 26.9268ZM31.0244 38.2195C31.0244 38.289 31.0315 38.3569 31.045 38.4224L23.2535 38.4756C24.0188 37.9008 24.5854 35.8311 24.5854 33.3659C24.5854 30.4563 23.7961 28.0976 22.8225 28.0976C22.157 28.0976 21.5841 29.1994 21.288 30.8258C21.1737 30.2791 21.0912 29.6726 21.0321 29.0821C20.9601 28.3615 20.9239 27.6753 20.9058 27.1686C20.9027 27.0825 20.9002 27.0017 20.8981 26.9268H31.0244V38.2195ZM3.67875 38.609L7.93487 38.58C7.08347 38.2124 6.43904 36.018 6.43904 33.3659C6.43904 33.1351 6.44393 32.9078 6.4534 32.6848C6.23529 32.32 6.07846 31.8533 5.9595 31.3775C5.78818 30.6922 5.67605 29.9024 5.60198 29.1617C5.5277 28.419 5.49069 27.7149 5.4722 27.1972C5.46874 27.1003 5.46593 27.0099 5.46364 26.9268H1.58101C1.58313 27.0017 1.58568 27.0825 1.58875 27.1686C1.60685 27.6753 1.64301 28.3615 1.71507 29.0821C1.77412 29.6726 1.8566 30.2791 1.97094 30.8258C2.26699 29.1994 2.83995 28.0976 3.50539 28.0976C4.47902 28.0976 5.2683 30.4563 5.2683 33.3659C5.2683 36.1007 4.57101 38.3488 3.67875 38.609ZM8.4501 38.5765L12.5534 38.5485C11.7341 38.1007 11.122 35.9507 11.122 33.3659C11.122 33.1351 11.1269 32.9078 11.1363 32.6848C10.9182 32.32 10.7614 31.8533 10.6424 31.3775C10.4711 30.6922 10.359 29.9024 10.2849 29.1617C10.2106 28.419 10.1736 27.7149 10.1551 27.1972C10.1517 27.1003 10.1489 27.0099 10.1466 26.9268H6.26395C6.26606 27.0017 6.26862 27.0825 6.27169 27.1686C6.28979 27.6753 6.32594 28.3615 6.39801 29.0821C6.45705 29.6726 6.53953 30.2791 6.65387 30.8258C6.94992 29.1994 7.52288 28.0976 8.18832 28.0976C9.16195 28.0976 9.95124 30.4563 9.95124 33.3659C9.95124 36.0097 9.29959 38.1986 8.4501 38.5765ZM13.1975 38.5441L17.7625 38.513C16.9731 37.9963 16.3902 35.8881 16.3902 33.3659C16.3902 33.1351 16.3951 32.9078 16.4046 32.6848C16.1865 32.32 16.0297 31.8533 15.9107 31.3775C15.7394 30.6922 15.6272 29.9024 15.5532 29.1617C15.4789 28.419 15.4419 27.7149 15.4234 27.1972C15.4199 27.1003 15.4171 27.0099 15.4148 26.9268H10.9469C10.949 27.0017 10.9515 27.0825 10.9546 27.1686C10.9727 27.6753 11.0089 28.3615 11.0809 29.0821C11.14 29.6726 11.2225 30.2791 11.3368 30.8258C11.6329 29.1994 12.2058 28.0976 12.8713 28.0976C13.8449 28.0976 14.6342 30.4563 14.6342 33.3659C14.6342 35.9423 14.0153 38.0868 13.1975 38.5441ZM18.5251 38.5078L22.4 38.4814C21.6338 37.9149 21.0732 35.8395 21.0732 33.3659C21.0732 33.1351 21.0781 32.9078 21.0875 32.6848C20.8694 32.32 20.7126 31.8533 20.5936 31.3775C20.4223 30.6922 20.3102 29.9024 20.2361 29.1617C20.1618 28.419 20.1248 27.7149 20.1063 27.1972C20.1029 27.1003 20.1001 27.0099 20.0978 26.9268H16.2151C16.2173 27.0017 16.2198 27.0825 16.2229 27.1686C16.241 27.6753 16.2771 28.3615 16.3492 29.0821C16.4082 29.6726 16.4907 30.2791 16.6051 30.8258C16.9011 29.1994 17.4741 28.0976 18.1395 28.0976C19.1131 28.0976 19.9024 30.4563 19.9024 33.3659C19.9024 35.8797 19.3133 37.9823 18.5251 38.5078Z" fill="#333333"/>
</svg>
