<svg width="26" height="30" viewBox="0 0 26 30" fill="none" xmlns="http://www.w3.org/2000/svg">
<rect x="5.05554" y="27" width="5.77778" height="3" rx="1" fill="#4F4F4F"/>
<rect x="15.1667" y="27" width="5.77778" height="3" rx="1" fill="#4F4F4F"/>
<path d="M0 6.72222C0 6.32335 0.32335 6 0.722222 6V6C1.12109 6 1.44444 6.32335 1.44444 6.72222V11.2778C1.44444 11.6767 1.12109 12 0.722222 12V12C0.32335 12 0 11.6767 0 11.2778V6.72222Z" fill="#4F4F4F"/>
<path d="M24.5555 6.72222C24.5555 6.32335 24.8789 6 25.2778 6V6C25.6766 6 26 6.32335 26 6.72222V11.2778C26 11.6767 25.6766 12 25.2778 12V12C24.8789 12 24.5555 11.6767 24.5555 11.2778V6.72222Z" fill="#4F4F4F"/>
<path fill-rule="evenodd" clip-rule="evenodd" d="M4.72223 0C2.51309 0 0.722229 1.79086 0.722229 4V24.5C0.722229 26.7091 2.51309 28.5 4.72223 28.5H21.2778C23.4869 28.5 25.2778 26.7091 25.2778 24.5V4C25.2778 1.79086 23.4869 0 21.2778 0H4.72223ZM6 3H20C21.1046 3 22 3.89543 22 5V23C22 24.1046 21.1046 25 20 25H6C4.89543 25 4 24.1046 4 23V5C4 3.89543 4.89543 3 6 3ZM3 5C3 3.34315 4.34315 2 6 2H20C21.6569 2 23 3.34315 23 5V23C23 24.6569 21.6569 26 20 26H6C4.34315 26 3 24.6569 3 23V5Z" fill="#4F4F4F"/>
</svg>
