<svg width="37" height="37" viewBox="0 0 37 37" fill="none" xmlns="http://www.w3.org/2000/svg">
<path fill-rule="evenodd" clip-rule="evenodd" d="M6 0V3.37931L6.016 3.3893C2.43248 5.3371 0 9.13448 0 13.5C0 19.8513 5.14873 25 11.5 25C17.6859 25 22.7311 20.1159 22.9896 13.9935L23 14V13.5V0H6ZM18 13.5C18 14.408 17.8138 15.2725 17.4776 16.0574C17.3245 16.0199 17.1646 16 17 16C16.5984 16 16.2245 16.1184 15.9112 16.3221L13.2338 14.4097C13.3734 14.1368 13.4521 13.8276 13.4521 13.5C13.4521 13.3541 13.4365 13.2119 13.4068 13.0749L17.4466 10.8714C17.8024 11.6751 18 12.5645 18 13.5ZM12.9561 12.1817L16.9724 9.99097C16.1647 8.73401 14.9358 7.77346 13.4851 7.30869C13.3844 8.13024 12.7856 8.7978 12 9V11.576C12.3754 11.6827 12.7057 11.8962 12.9561 12.1817ZM11 11.5513V9C10.2144 8.7978 9.61558 8.13024 9.51494 7.30869C8.06417 7.77346 6.83528 8.73401 6.02761 9.99097L9.97959 12.1466C10.2476 11.8552 10.6009 11.6435 11 11.5513ZM9.50802 13.0285L5.55343 10.8714C5.19763 11.6751 5 12.5645 5 13.5C5 14.408 5.18618 15.2725 5.52244 16.0574C5.67547 16.0199 5.83542 16.0001 6.00001 16.0001C6.40158 16.0001 6.7755 16.1184 7.0888 16.3221L9.69676 14.4593C9.5408 14.1745 9.45212 13.8476 9.45212 13.5C9.45212 13.3376 9.47148 13.1797 9.50802 13.0285ZM7.76864 17.0654L10.3885 15.1941C10.5741 15.3108 10.7801 15.3979 11 15.4487V19.9811C9.82083 19.8914 8.7296 19.487 7.81008 18.8518C7.9319 18.5934 8.00001 18.3047 8.00001 18.0001C8.00001 17.6624 7.91636 17.3444 7.76864 17.0654ZM12 15.424V19.9811C13.1792 19.8914 14.2704 19.487 15.1899 18.8518C15.0681 18.5934 15 18.3046 15 18C15 17.6624 15.0836 17.3443 15.2313 17.0654L12.5658 15.1615C12.3942 15.2767 12.2037 15.3661 12 15.424ZM19 13.5C19 14.58 18.7717 15.6066 18.3608 16.5343C18.754 16.8996 19 17.421 19 18C19 19.1046 18.1046 20 17 20C16.5638 20 16.1603 19.8604 15.8316 19.6234C14.6082 20.4904 13.1136 21 11.5 21C9.88641 21 8.39184 20.4904 7.16843 19.6234C6.83974 19.8604 6.43618 20.0001 6.00001 20.0001C4.89544 20.0001 4.00001 19.1046 4.00001 18.0001C4.00001 17.4211 4.24601 16.8996 4.63919 16.5344C4.22827 15.6066 4 14.58 4 13.5C4 9.9836 6.41997 7.03242 9.68535 6.22102C10.0032 5.53716 10.6962 5.06301 11.5 5.06301C12.3038 5.06301 12.9968 5.53716 13.3147 6.22102C16.58 7.03242 19 9.9836 19 13.5Z" fill="#4F4F4F"/>
<path d="M1 13V24.8364V24.8364C1 26.1016 2.02568 27.1273 3.29091 27.1273H14.3636C15.2674 27.1273 16 27.8599 16 28.7636V28.7636C16 29.6674 15.2674 30.4 14.3636 30.4H2.8C1.80589 30.4 1 31.2059 1 32.2V32.2C1 33.1941 1.80589 34 2.8 34H23" stroke="#4F4F4F" stroke-width="2"/>
<path fill-rule="evenodd" clip-rule="evenodd" d="M31 0H23V13H31C34.3137 13 37 10.3137 37 7V6C37 2.68629 34.3137 0 31 0ZM31 2.5C31.8284 2.5 32.5 3.17157 32.5 4V6.26087H33.5V4C33.5 2.61929 32.3807 1.5 31 1.5V2.5ZM32.5 8.08696V9H33.5V8.08696H32.5Z" fill="#4F4F4F"/>
<path d="M22 32.5C22 31.9477 22.4477 31.5 23 31.5V31.5C23.5523 31.5 24 31.9477 24 32.5V35.5C24 36.0523 23.5523 36.5 23 36.5V36.5C22.4477 36.5 22 36.0523 22 35.5V32.5Z" fill="#4F4F4F"/>
<path d="M12.5 13.5C12.5 14.0523 12.0523 14.5 11.5 14.5C10.9477 14.5 10.5 14.0523 10.5 13.5C10.5 12.9477 10.9477 12.5 11.5 12.5C12.0523 12.5 12.5 12.9477 12.5 13.5Z" fill="#4F4F4F"/>
</svg>
