<svg width="20" height="21" viewBox="0 0 20 21" fill="none" xmlns="http://www.w3.org/2000/svg">
<rect x="5" y="1" width="10" height="5" rx="1" fill="#8B8989"/>
<path d="M5 4.5H3.85355C3.62718 4.5 3.41007 4.58993 3.25 4.75V4.75C3.08993 4.91007 3 5.12718 3 5.35355V7" stroke="#8B8989"/>
<path d="M15 4.5H16.1464C16.3728 4.5 16.5899 4.58993 16.75 4.75V4.75C16.9101 4.91007 17 5.12718 17 5.35355V7" stroke="#8B8989"/>
<path d="M12 1L11 1L11 0.5C11 0.223858 11.2239 6.78525e-08 11.5 4.37114e-08V4.37114e-08C11.7761 1.95703e-08 12 0.223858 12 0.5L12 1Z" fill="#8B8989"/>
<path d="M8.35355 7.5H11.6464C11.8728 7.5 12.0899 7.58993 12.25 7.75C12.4101 7.91007 12.5 8.12718 12.5 8.35355V8.64645C12.5 8.87282 12.4101 9.08993 12.25 9.25C12.0899 9.41007 11.8728 9.5 11.6464 9.5H8.35355C8.12718 9.5 7.91007 9.41007 7.75 9.25C7.58993 9.08993 7.5 8.87282 7.5 8.64645V8.35355C7.5 8.12718 7.58993 7.91007 7.75 7.75C7.91007 7.58993 8.12718 7.5 8.35355 7.5Z" stroke="#8B8989"/>
<path d="M7.5 8.5L8 12.5H12L12.5 8.5" stroke="#8B8989"/>
<rect x="8" y="10" width="4" height="2" fill="#8B8989"/>
<path d="M1.35355 7.5H4.64645C4.87282 7.5 5.08993 7.58993 5.25 7.75C5.41007 7.91007 5.5 8.12718 5.5 8.35355V8.64645C5.5 8.87282 5.41007 9.08993 5.25 9.25C5.08993 9.41007 4.87282 9.5 4.64645 9.5H1.35355C1.12718 9.5 0.910072 9.41007 0.75 9.25C0.589928 9.08993 0.5 8.87282 0.5 8.64645V8.35355C0.5 8.12718 0.589928 7.91007 0.75 7.75C0.910072 7.58993 1.12718 7.5 1.35355 7.5Z" stroke="#8B8989"/>
<path d="M0.5 8.5L1 12.5H5L5.5 8.5" stroke="#8B8989"/>
<rect x="1" y="10" width="4" height="2" fill="#8B8989"/>
<path d="M15.3536 7.5H18.6464C18.8728 7.5 19.0899 7.58993 19.25 7.75C19.4101 7.91007 19.5 8.12718 19.5 8.35355V8.64645C19.5 8.87282 19.4101 9.08993 19.25 9.25C19.0899 9.41007 18.8728 9.5 18.6464 9.5H15.3536C15.1272 9.5 14.9101 9.41007 14.75 9.25C14.5899 9.08993 14.5 8.87282 14.5 8.64645V8.35355C14.5 8.12718 14.5899 7.91007 14.75 7.75C14.9101 7.58993 15.1272 7.5 15.3536 7.5Z" stroke="#8B8989"/>
<path d="M14.5 8.5L15 12.5H19L19.5 8.5" stroke="#8B8989"/>
<rect x="15" y="10" width="4" height="2" fill="#8B8989"/>
<rect x="1" y="12" width="18" height="1" rx="0.5" fill="#8B8989"/>
<path d="M17.5 12.5C17.5 12.2239 17.7239 12 18 12V12C18.2761 12 18.5 12.2239 18.5 12.5V18C18.5 18.2761 18.2761 18.5 18 18.5V18.5C17.7239 18.5 17.5 18.2761 17.5 18V12.5Z" fill="#8B8989"/>
<path d="M10.5 12.5C10.5 12.2239 10.7239 12 11 12V12C11.2761 12 11.5 12.2239 11.5 12.5V18C11.5 18.2761 11.2761 18.5 11 18.5V18.5C10.7239 18.5 10.5 18.2761 10.5 18V12.5Z" fill="#8B8989"/>
<path d="M14.5 12.5C14.5 12.2239 14.7239 12 15 12V12C15.2761 12 15.5 12.2239 15.5 12.5V14C15.5 14.2761 15.2761 14.5 15 14.5V14.5C14.7239 14.5 14.5 14.2761 14.5 14V12.5Z" fill="#8B8989"/>
<path d="M7.5 12.5C7.5 12.2239 7.72386 12 8 12V12C8.27614 12 8.5 12.2239 8.5 12.5V14C8.5 14.2761 8.27614 14.5 8 14.5V14.5C7.72386 14.5 7.5 14.2761 7.5 14V12.5Z" fill="#8B8989"/>
<path d="M0.5 12.5C0.5 12.2239 0.723858 12 1 12V12C1.27614 12 1.5 12.2239 1.5 12.5V14C1.5 14.2761 1.27614 14.5 1 14.5V14.5C0.723858 14.5 0.5 14.2761 0.5 14V12.5Z" fill="#8B8989"/>
<path d="M3.5 12.5C3.5 12.2239 3.72386 12 4 12V12C4.27614 12 4.5 12.2239 4.5 12.5V18C4.5 18.2761 4.27614 18.5 4 18.5V18.5C3.72386 18.5 3.5 18.2761 3.5 18V12.5Z" fill="#8B8989"/>
<rect y="15" width="3" height="6" rx="1.5" fill="#8B8989"/>
<rect x="7" y="15" width="3" height="6" rx="1.5" fill="#8B8989"/>
<rect x="14" y="15" width="3" height="6" rx="1.5" fill="#8B8989"/>
</svg>
