<svg width="105" height="84" viewBox="0 0 105 84" fill="none" xmlns="http://www.w3.org/2000/svg">
<path d="M54.966 6.48857V30.4276C54.966 32.9065 57.1166 34.9161 59.7694 34.9161H98.1966C100.849 34.9161 103 32.9065 103 30.4276V6.48857C103 4.0096 100.849 2 98.1966 2H59.7694C57.1166 2 54.966 4.0096 54.966 6.48857Z" fill="#F5F5F5" stroke="#066ACD" stroke-width="4" stroke-linecap="round" stroke-linejoin="round"/>
<path d="M59.5764 5.85986H62.5786C66.61 22.586 88.0609 28.0899 98.2824 28.7511V31.1099H59.5764V5.85986Z" fill="#276EAF" stroke="#066ACD"/>
<circle cx="55.3949" cy="38.9904" r="26.2686" fill="#F5F5F5"/>
<path d="M40.0136 35.0654C40.2581 35.0654 40.5309 35.103 40.8319 35.1783C41.1329 35.2535 41.4339 35.357 41.7348 35.4887C42.0358 35.6203 42.3368 35.7426 42.6378 35.8555C42.9388 35.9683 43.2116 36.0812 43.4561 36.1941L43.0046 36.2505C42.8541 36.2693 42.6942 36.2787 42.5249 36.2787C42.2051 36.2787 41.9136 36.2317 41.6502 36.1377C41.3868 36.0436 41.1423 35.9213 40.9165 35.7708C40.6908 35.6203 40.4651 35.5075 40.2393 35.4322C40.0136 35.357 39.8067 35.3005 39.6185 35.2629C39.4304 35.2629 39.2611 35.3005 39.1106 35.3758C38.9601 35.451 38.8096 35.5357 38.6591 35.6297C38.6591 35.5545 38.5933 35.5169 38.4616 35.5169C38.5933 35.3852 38.8379 35.2817 39.1953 35.2065C39.5527 35.1312 39.8255 35.0842 40.0136 35.0654ZM43.8229 36.3352C44.5942 36.3352 45.2997 36.4669 45.9393 36.7302C45.6759 36.8243 45.4125 36.8995 45.1492 36.956C44.8858 37.0124 44.613 37.05 44.3309 37.0688C43.9546 37.0688 43.616 37.0312 43.315 36.956C43.4091 36.8055 43.5031 36.7114 43.5972 36.6738C43.6913 36.6362 43.7665 36.5233 43.8229 36.3352ZM54.9124 10.1493C57.5649 10.1493 60.1138 10.4974 62.5594 11.1934C65.0049 11.8894 67.2999 12.8582 69.4444 14.0998C71.589 15.3414 73.5454 16.8557 75.3137 18.6428C77.082 20.4299 78.5869 22.3769 79.8285 24.4838C81.07 26.5907 82.0482 28.8858 82.7631 31.3689C83.4779 33.852 83.8259 36.4104 83.8071 39.0441C83.8071 41.6965 83.4591 44.2455 82.7631 46.691C82.067 49.1365 81.0982 51.4315 79.8567 53.5761C78.6151 55.7206 77.1008 57.677 75.3137 59.4453C73.5266 61.2136 71.5795 62.7185 69.4726 63.9601C67.3657 65.2017 65.0707 66.1799 62.5876 66.8947C60.1044 67.6096 57.546 67.9576 54.9124 67.9388C52.26 67.9388 49.711 67.5907 47.2655 66.8947C44.82 66.1987 42.5249 65.2299 40.3804 63.9883C38.2359 62.7467 36.2795 61.2324 34.5112 59.4453C32.7429 57.6582 31.2379 55.7112 29.9964 53.6043C28.7548 51.4974 27.7766 49.2024 27.0618 46.7192C26.3469 44.2361 25.9989 41.6777 26.0177 39.0441C26.0177 36.3916 26.3657 33.8426 27.0618 31.3971C27.7578 28.9516 28.7266 26.6566 29.9682 24.512C31.2097 22.3675 32.7241 20.4111 34.5112 18.6428C36.2983 16.8745 38.2453 15.3696 40.3522 14.128C42.4591 12.8864 44.7541 11.9082 47.2373 11.1934C49.7204 10.4785 52.2788 10.1305 54.9124 10.1493ZM76.4141 25.8101C76.1508 25.3962 75.8874 25.0011 75.6241 24.6249C75.3607 24.2487 75.0879 23.863 74.8057 23.468C74.7681 23.6373 74.7211 23.7596 74.6647 23.8348C74.6082 23.9101 74.5706 24.0794 74.5518 24.3427C74.5518 24.512 74.6176 24.6719 74.7493 24.8224C74.881 24.9729 75.0503 25.1234 75.2572 25.2739C75.4642 25.4244 75.6711 25.5373 75.878 25.6125C76.0849 25.6878 76.2637 25.7536 76.4141 25.8101ZM74.4671 23.0447C74.4671 23.1952 74.4389 23.2987 74.3825 23.3551H74.5518C74.627 23.3551 74.6835 23.3645 74.7211 23.3833L74.4671 23.0447ZM54.9124 64.3269C57.0569 64.3269 59.1544 64.0542 61.2049 63.5086C63.2554 62.9631 65.193 62.1918 67.0177 61.1948C68.8425 60.1978 70.5355 58.975 72.0969 57.5265C73.6582 56.078 75.0221 54.4602 76.1884 52.6731C75.9439 52.1088 75.7087 51.535 75.483 50.9518C75.2572 50.3687 75.1444 49.7667 75.1444 49.1459C75.1444 48.4687 75.1726 47.9232 75.229 47.5093C75.2854 47.0954 75.3513 46.7286 75.4265 46.4088C75.5018 46.089 75.5394 45.8163 75.5394 45.5905C75.5394 45.3648 75.5112 45.0732 75.4548 44.7158C75.3983 44.3583 75.2384 43.9727 74.9751 43.5589C74.7117 43.145 74.3637 42.5618 73.931 41.8094C73.9498 41.6777 73.978 41.499 74.0157 41.2732C74.0533 41.0475 74.0909 40.8124 74.1285 40.5678C74.1662 40.3232 74.1756 40.0975 74.1567 39.8906C74.1379 39.6837 74.0909 39.5049 74.0157 39.3544C73.5266 39.298 73.0186 39.1945 72.4919 39.0441C71.9652 38.8936 71.4949 38.6678 71.081 38.3668L71.2503 38.2257C71.0058 38.2822 70.7612 38.3574 70.5167 38.4515C70.2721 38.5455 70.037 38.649 69.8113 38.7619C69.5855 38.8747 69.341 38.95 69.0776 38.9876C68.8142 39.0252 68.5603 39.0629 68.3157 39.1005L67.8642 39.0441L67.9489 38.8465C67.6855 38.9218 67.4034 39.0158 67.1024 39.1287C66.8014 39.2416 66.5098 39.298 66.2276 39.298C66.0395 39.298 65.7667 39.2322 65.4093 39.1005C65.0519 38.9688 64.6945 38.8089 64.3371 38.6208C63.9796 38.4327 63.6598 38.2257 63.3777 38C63.0955 37.7743 62.9544 37.5579 62.9544 37.351L63.0108 37.2664C62.9168 37.1535 62.7945 37.05 62.644 36.956C62.4935 36.8619 62.3524 36.7678 62.2207 36.6738C62.0891 36.5797 61.9668 36.4763 61.8539 36.3634C61.741 36.2505 61.694 36.1188 61.7128 35.9683L62.0232 35.7144L61.3742 35.6297L61.1485 34.7832C61.1861 34.8773 61.2708 34.9149 61.4024 34.8961C61.5341 34.8773 61.6376 34.8396 61.7128 34.7832L60.697 34.2471L61.4024 32.4412C61.1391 31.463 61.0732 30.7105 61.2049 30.1838C61.3366 29.657 61.5906 29.2244 61.9668 28.8858C62.343 28.5471 62.7569 28.2085 63.2084 27.8699C63.6598 27.5313 64.1207 27.0704 64.591 26.4873L64.5064 26.1487L66.3687 23.8913L66.792 23.8348C67.3187 23.8348 67.9113 23.816 68.5697 23.7784C69.2281 23.7408 69.8959 23.6749 70.5731 23.5809C71.2503 23.4868 71.9182 23.3928 72.5766 23.2987C73.235 23.2046 73.8369 23.0824 74.3825 22.9319C73.7805 22.217 73.1503 21.5398 72.4919 20.9002C71.8335 20.2606 71.1281 19.6492 70.3756 19.0661C70.1687 19.1413 69.9147 19.2448 69.6137 19.3765C69.3127 19.5081 69.0118 19.6774 68.7108 19.8844C68.4098 20.0913 68.1746 20.317 68.0053 20.5616C67.836 20.8061 67.7326 21.0601 67.6949 21.3235L67.8642 21.8596C67.5256 22.4051 67.1494 22.7438 66.7355 22.8754C66.3217 23.0071 65.8984 23.0824 65.4658 23.1012C65.0331 23.12 64.5816 23.12 64.1113 23.1012C63.641 23.0824 63.1895 23.167 62.7569 23.3551L62.3054 22.3957L62.7287 20.7591L62.249 20.0537L67.1306 18.5299C66.9237 18.0032 66.5851 17.6082 66.1148 17.3448C65.6445 17.0814 65.1271 16.9498 64.5628 16.9498V16.6676L66.143 16.4136C64.3935 15.5483 62.5782 14.8899 60.697 14.4384C58.8158 13.9869 56.8876 13.7612 54.9124 13.7612C53.2758 13.7612 51.658 13.9211 50.059 14.2409C48.46 14.5607 46.9175 15.0216 45.4313 15.6235C43.9452 16.2255 42.5061 16.978 41.1141 17.8809C39.722 18.7839 38.4522 19.7997 37.3047 20.9284C37.7938 20.9284 38.17 21.0507 38.4334 21.2953C38.6968 21.5398 38.9413 21.8126 39.1671 22.1136C39.3928 22.4145 39.6279 22.6873 39.8725 22.9319C40.117 23.1764 40.4462 23.3081 40.8601 23.3269L41.3116 22.9883L41.2552 22.3675L42.1863 21.0413L41.4527 18.9532C41.5467 18.8968 41.6878 18.8027 41.8759 18.671C42.0641 18.5393 42.224 18.4735 42.3556 18.4735C42.92 18.4735 43.3527 18.5017 43.6536 18.5582C43.9546 18.6146 44.218 18.7181 44.4437 18.8685C44.6695 19.019 44.867 19.2354 45.0363 19.5176C45.2056 19.7997 45.469 20.1571 45.8264 20.5898L46.8422 19.7997C47.0303 19.875 47.3313 19.9972 47.7452 20.1666C48.159 20.3359 48.5823 20.5428 49.015 20.7873C49.4476 21.0319 49.8145 21.2858 50.1154 21.5492C50.4164 21.8126 50.5763 22.0571 50.5951 22.2829C50.5951 22.565 50.4917 22.7908 50.2847 22.9601C50.0778 23.1294 49.8051 23.2705 49.4664 23.3833C49.1278 23.4962 48.7798 23.5809 48.4224 23.6373C48.065 23.6937 47.7076 23.769 47.3501 23.863C46.9927 23.9571 46.7199 24.0512 46.5318 24.1452C46.3437 24.2393 46.2308 24.3992 46.1932 24.6249L47.8298 25.161C47.4536 25.4808 47.0491 25.7724 46.6165 26.0358C46.1838 26.2992 45.7323 26.5437 45.262 26.7694L45.3749 27.2491L42.7789 28.265V29.0551L42.5814 29.1397L42.7225 28.1521L42.6096 28.1239C42.4779 28.1239 42.4027 28.1521 42.3839 28.2085C42.365 28.265 42.3556 28.3308 42.3556 28.4061C42.3556 28.4813 42.3744 28.5566 42.4121 28.6318C42.4497 28.707 42.4591 28.7635 42.4403 28.8011L42.0735 28.6036L42.1299 28.7165C42.1299 28.7729 42.1581 28.8575 42.2145 28.9704C42.271 29.0833 42.3462 29.1867 42.4403 29.2808C42.5343 29.3749 42.6096 29.4689 42.666 29.563C42.7225 29.657 42.7601 29.7041 42.7789 29.7041C42.7789 29.7605 42.7413 29.8169 42.666 29.8734C42.5908 29.9298 42.4967 29.9674 42.3839 29.9862C42.271 30.0051 42.1957 30.0333 42.1581 30.0709C42.1205 30.1085 42.1205 30.1179 42.1581 30.0991C42.4215 30.0991 42.4779 30.1179 42.3274 30.1555C42.1769 30.1932 41.9418 30.2872 41.622 30.4377C41.3022 30.5882 41.0106 30.8045 40.7472 31.0867C40.4839 31.3689 40.3334 31.7828 40.2958 32.3283C40.2958 32.6481 40.3052 32.9585 40.324 33.2595C40.3428 33.5605 40.3334 33.8708 40.2958 34.1906C40.0324 33.4758 39.6373 32.9303 39.1106 32.554C38.5839 32.1778 37.9443 31.9897 37.1918 31.9897L35.9785 32.1026L36.571 32.4976C36.2512 32.46 35.922 32.4223 35.5834 32.3847C35.2448 32.3471 34.8968 32.3377 34.5394 32.3565C34.182 32.3753 33.8622 32.4506 33.58 32.5822C33.2978 32.7139 33.0156 32.9115 32.7335 33.1748L32.5642 34.4446C32.5642 35.0466 32.6958 35.5357 32.9592 35.9119C33.2226 36.2881 33.6835 36.4857 34.3419 36.5045C34.9062 36.5045 35.4612 36.4198 36.0067 36.2505C36.5522 36.0812 37.0884 35.8837 37.6151 35.658C37.4458 36.0718 37.2577 36.4669 37.0507 36.8431C36.8438 37.2193 36.6933 37.6332 36.5993 38.0847L36.9661 38.254C37.4176 37.953 37.8314 37.9059 38.2077 38.1129C38.5839 38.3198 38.9507 38.6208 39.3081 39.0158C39.6656 39.4109 40.0324 39.8153 40.4086 40.2292C40.7849 40.643 41.1893 40.944 41.622 41.1321L40.6626 41.6401L38.4052 40.3703C38.424 40.4079 38.4428 40.4926 38.4616 40.6242C38.4804 40.7559 38.471 40.7841 38.4334 40.7089L37.4176 38.9876C36.8156 38.9688 36.176 38.8747 35.4988 38.7054C34.8216 38.5361 34.1349 38.3104 33.4389 38.0282C32.7429 37.746 32.0939 37.4357 31.4919 37.097C30.8899 36.7584 30.335 36.401 29.8271 36.0248L29.6295 39.0441C29.6295 41.3391 29.9399 43.5777 30.5607 45.7598C31.1815 47.942 32.0562 49.9924 33.1849 51.9112C34.3136 53.83 35.6963 55.5795 37.3329 57.1597C38.9695 58.7399 40.7849 60.0849 42.7789 61.1948C42.6848 60.7997 42.6754 60.4047 42.7507 60.0097C42.8259 59.6146 42.92 59.2196 43.0329 58.8245C43.1457 58.4295 43.268 58.0344 43.3997 57.6394C43.5314 57.2443 43.5972 56.8399 43.5972 56.426C43.5972 55.8241 43.5031 55.1939 43.315 54.5355C43.1269 53.877 42.9012 53.2092 42.6378 52.532C42.3744 51.8548 42.0829 51.187 41.7631 50.5286C41.4433 49.8702 41.1893 49.2494 41.0012 48.6662C40.8131 48.0831 40.6626 47.5375 40.5497 47.0296C40.4368 46.5217 40.4933 46.0796 40.719 45.7034L40.2958 45.5059C40.4086 45.2425 40.5591 44.9885 40.7472 44.744C40.9354 44.4994 41.1329 44.2549 41.3398 44.0103C41.5467 43.7658 41.7066 43.5024 41.8195 43.2202C41.9324 42.9381 41.9982 42.6559 42.017 42.3737C42.017 42.1856 41.9794 41.9881 41.9042 41.7812C41.8289 41.5742 41.7631 41.3767 41.7066 41.1886L42.2992 41.3297C42.619 40.596 43.0517 40.0975 43.5972 39.8341C44.1427 39.5708 44.8294 39.4297 45.6571 39.4109C45.7511 39.4109 45.9487 39.4485 46.2496 39.5238C46.5506 39.599 46.8704 39.7025 47.209 39.8341C47.5477 39.9658 47.8675 40.0693 48.1684 40.1445C48.4694 40.2198 48.6952 40.295 48.8457 40.3703C48.8457 40.502 48.9209 40.5866 49.0714 40.6242C49.2219 40.6619 49.3065 40.7277 49.3254 40.8218L49.2689 41.0475C49.3254 41.0663 49.457 41.1321 49.664 41.245C49.8709 41.3579 50.0966 41.499 50.3412 41.6683C50.5857 41.8376 50.8021 41.9881 50.9902 42.1198C51.1783 42.2514 51.31 42.3549 51.3852 42.4302C51.7238 42.4302 52.1847 42.543 52.7679 42.7688C53.351 42.9945 53.9906 43.2767 54.6867 43.6153C55.3827 43.9539 56.0693 44.3583 56.7466 44.8286C57.4238 45.2989 58.0634 45.7692 58.6653 46.2395C59.2673 46.7098 59.7282 47.1801 60.048 47.6504C60.3678 48.1207 60.5559 48.5345 60.6124 48.892L59.653 49.9078C59.7282 50.8672 59.6624 51.6008 59.4554 52.1088C59.2485 52.6167 58.9287 53.0399 58.496 53.3785C58.0634 53.7171 57.5649 53.9993 57.0005 54.2251C56.4362 54.4508 55.8248 54.7706 55.1664 55.1845C55.1664 55.5607 55.0723 55.9651 54.8842 56.3978C54.6961 56.8305 54.4609 57.2443 54.1788 57.6394C53.8966 58.0344 53.558 58.3636 53.1629 58.627C52.7679 58.8904 52.3728 59.022 51.9778 59.022L50.7927 58.1191C50.8303 58.1567 50.8303 58.2225 50.7927 58.3166C50.755 58.4107 50.708 58.4295 50.6516 58.373C50.8397 58.7305 50.8867 59.1443 50.7927 59.6146C50.6986 60.0849 50.5387 60.5646 50.313 61.0537C50.0872 61.5428 49.8333 62.0037 49.5511 62.4364C49.2689 62.869 49.015 63.2358 48.7892 63.5368C49.8051 63.8002 50.8209 63.9977 51.8367 64.1294C52.8525 64.2611 53.8778 64.3269 54.9124 64.3269Z" fill="#4F4F4F"/>
<path d="M2 53.2359L2 77.1749C2 79.6539 4.15055 81.6635 6.8034 81.6635H45.2306C47.8834 81.6635 50.034 79.6539 50.034 77.1749V53.2359C50.034 50.7569 47.8834 48.7473 45.2306 48.7473H6.8034C4.15055 48.7473 2 50.7569 2 53.2359Z" fill="#F5F5F5" stroke="#066ACD" stroke-width="4" stroke-linecap="round" stroke-linejoin="round"/>
<path d="M6.6104 52.6072H9.61252C13.6439 69.3333 35.0948 74.8372 45.3163 75.4984V77.8572H6.6104V52.6072Z" fill="#276EAF" stroke="#066ACD"/>
</svg>
