<svg width="105" height="45" viewBox="0 0 105 45" fill="none" xmlns="http://www.w3.org/2000/svg">
<path d="M15.8628 34.3543L0.000125129 34.3543L0.000125647 22.5L0.000126165 10.6458L15.8628 34.3543ZM100.728 42.2571L95.1761 34.3543L103.107 34.3543L103.107 10.6458L79.3134 10.6458L73.7615 2.74292L65.8302 2.74292L92.0036 42.2571L100.728 42.2571ZM69.0027 42.2571L63.4508 34.3543L79.3134 34.3543L63.4508 10.6458L47.5881 10.6458L42.0362 2.74292L34.1048 2.74292L60.2782 42.2571L69.0027 42.2571ZM37.2774 42.2571L31.7254 34.3543L47.5881 34.3543L31.7254 10.6458L15.8628 10.6458L10.3109 2.74292L2.37952 2.74292L28.5529 42.2571L37.2774 42.2571Z" fill="#ECECEC"/>
<circle cx="15.7894" cy="4.73678" r="1.57895" fill="#ECECEC"/>
<circle cx="18.158" cy="7.89474" r="1.57895" fill="#ECECEC"/>
<circle cx="20.5262" cy="4.73678" r="1.57895" fill="#ECECEC"/>
<circle cx="22.8949" cy="7.89474" r="1.57895" fill="#ECECEC"/>
<circle cx="25.263" cy="4.73678" r="1.57895" fill="#ECECEC"/>
<circle cx="27.6317" cy="7.89474" r="1.57895" fill="#ECECEC"/>
<circle cx="47.3685" cy="4.73678" r="1.57895" fill="#ECECEC"/>
<circle cx="49.7367" cy="7.89474" r="1.57895" fill="#ECECEC"/>
<circle cx="52.1053" cy="4.73678" r="1.57895" fill="#ECECEC"/>
<circle cx="54.4735" cy="7.89474" r="1.57895" fill="#ECECEC"/>
<circle cx="56.8421" cy="4.73678" r="1.57895" fill="#ECECEC"/>
<circle cx="59.2103" cy="7.89474" r="1.57895" fill="#ECECEC"/>
<circle cx="2.3685" cy="37.1053" r="1.57895" fill="#ECECEC"/>
<circle cx="4.73666" cy="40.2632" r="1.57895" fill="#ECECEC"/>
<circle cx="7.10531" cy="37.1053" r="1.57895" fill="#ECECEC"/>
<circle cx="9.47348" cy="40.2632" r="1.57895" fill="#ECECEC"/>
<circle cx="11.8421" cy="37.1053" r="1.57895" fill="#ECECEC"/>
<circle cx="14.2103" cy="40.2632" r="1.57895" fill="#ECECEC"/>
<circle cx="37.1053" cy="37.1053" r="1.57895" fill="#ECECEC"/>
<circle cx="39.4735" cy="40.2632" r="1.57895" fill="#ECECEC"/>
<circle cx="41.8421" cy="37.1053" r="1.57895" fill="#ECECEC"/>
<circle cx="44.2103" cy="40.2632" r="1.57895" fill="#ECECEC"/>
<circle cx="46.5789" cy="37.1053" r="1.57895" fill="#ECECEC"/>
<circle cx="48.9476" cy="40.2632" r="1.57895" fill="#ECECEC"/>
<circle cx="68.6844" cy="37.1053" r="1.57895" fill="#ECECEC"/>
<circle cx="71.0526" cy="40.2632" r="1.57895" fill="#ECECEC"/>
<circle cx="73.4212" cy="37.1053" r="1.57895" fill="#ECECEC"/>
<circle cx="75.7894" cy="40.2632" r="1.57895" fill="#ECECEC"/>
<circle cx="78.1581" cy="37.1053" r="1.57895" fill="#ECECEC"/>
<circle cx="80.5262" cy="40.2632" r="1.57895" fill="#ECECEC"/>
</svg>
