<svg width="18" height="18" viewBox="0 0 18 18" fill="none" xmlns="http://www.w3.org/2000/svg">
<path d="M1.8 18C1.305 18 0.8814 17.8239 0.5292 17.4717C0.1764 17.1189 0 16.695 0 16.2V12.6H1.8V16.2H5.4V18H1.8ZM0 5.4V1.8C0 1.305 0.1764 0.8811 0.5292 0.5283C0.8814 0.1761 1.305 0 1.8 0H5.4V1.8H1.8V5.4H0ZM8.1 15.21C6.72 15 5.5425 14.4075 4.5675 13.4325C3.5925 12.4575 3 11.28 2.79 9.9H4.59C4.77 10.785 5.1789 11.5464 5.8167 12.1842C6.4539 12.8214 7.215 13.23 8.1 13.41V15.21ZM2.79 8.1C3 6.72 3.5925 5.5386 4.5675 4.5558C5.5425 3.5736 6.72 2.985 8.1 2.79V4.59C7.215 4.77 6.4539 5.1786 5.8167 5.8158C5.1789 6.4536 4.77 7.215 4.59 8.1H2.79ZM9 10.8C8.505 10.8 8.0814 10.6236 7.7292 10.2708C7.3764 9.9186 7.2 9.495 7.2 9C7.2 8.49 7.3764 8.0625 7.7292 7.7175C8.0814 7.3725 8.505 7.2 9 7.2C9.51 7.2 9.9375 7.3725 10.2825 7.7175C10.6275 8.0625 10.8 8.49 10.8 9C10.8 9.495 10.6275 9.9186 10.2825 10.2708C9.9375 10.6236 9.51 10.8 9 10.8ZM9.9 15.21V13.41C10.785 13.23 11.5464 12.8214 12.1842 12.1842C12.8214 11.5464 13.23 10.785 13.41 9.9H15.21C15.015 11.28 14.4264 12.4575 13.4442 13.4325C12.4614 14.4075 11.28 15 9.9 15.21ZM13.41 8.1C13.23 7.215 12.8214 6.4536 12.1842 5.8158C11.5464 5.1786 10.785 4.77 9.9 4.59V2.79C11.28 3 12.4614 3.5925 13.4442 4.5675C14.4264 5.5425 15.015 6.72 15.21 8.1H13.41ZM12.6 18V16.2H16.2V12.6H18V16.2C18 16.695 17.8239 17.1189 17.4717 17.4717C17.1189 17.8239 16.695 18 16.2 18H12.6ZM16.2 5.4V1.8H12.6V0H16.2C16.695 0 17.1189 0.1761 17.4717 0.5283C17.8239 0.8811 18 1.305 18 1.8V5.4H16.2Z" fill="#8B8989"/>
</svg>
