<svg width="24" height="24" viewBox="0 0 24 24" fill="none" xmlns="http://www.w3.org/2000/svg">
<path d="M11 21V19H19V11.9C19 10.9333 18.8167 10.025 18.45 9.175C18.0833 8.325 17.5833 7.58333 16.95 6.95C16.3167 6.31667 15.575 5.81667 14.725 5.45C13.875 5.08333 12.9667 4.9 12 4.9C11.0333 4.9 10.125 5.08333 9.275 5.45C8.425 5.81667 7.68333 6.31667 7.05 6.95C6.41667 7.58333 5.91667 8.325 5.55 9.175C5.18333 10.025 5 10.9333 5 11.9V18H4C3.45 18 2.97933 17.804 2.588 17.412C2.19667 17.02 2.00067 16.5493 2 16V14C2 13.6167 2.09167 13.2793 2.275 12.988C2.45833 12.6967 2.7 12.459 3 12.275L3.075 10.95C3.225 9.73334 3.571 8.63334 4.113 7.65C4.655 6.66667 5.33 5.83334 6.138 5.15C6.946 4.46667 7.85433 3.93734 8.863 3.562C9.87167 3.18667 10.9173 2.99934 12 3C13.1 3 14.1543 3.18767 15.163 3.563C16.1717 3.93834 17.0757 4.47167 17.875 5.163C18.675 5.85434 19.346 6.68767 19.888 7.663C20.43 8.63834 20.7757 9.72567 20.925 10.925L21 12.225C21.3 12.375 21.5417 12.596 21.725 12.888C21.9083 13.18 22 13.5007 22 13.85V16.15C22 16.5167 21.9083 16.8417 21.725 17.125C21.5417 17.4083 21.3 17.625 21 17.775V19C21 19.55 20.804 20.021 20.412 20.413C20.02 20.805 19.5493 21.0007 19 21H11ZM9 14C8.71667 14 8.479 13.904 8.287 13.712C8.095 13.52 7.99933 13.2827 8 13C8 12.7167 8.096 12.479 8.288 12.287C8.48 12.095 8.71733 11.9993 9 12C9.28333 12 9.521 12.096 9.713 12.288C9.905 12.48 10.0007 12.7173 10 13C10 13.2833 9.904 13.521 9.712 13.713C9.52 13.905 9.28267 14.0007 9 14ZM15 14C14.7167 14 14.479 13.904 14.287 13.712C14.095 13.52 13.9993 13.2827 14 13C14 12.7167 14.096 12.479 14.288 12.287C14.48 12.095 14.7173 11.9993 15 12C15.2833 12 15.521 12.096 15.713 12.288C15.905 12.48 16.0007 12.7173 16 13C16 13.2833 15.904 13.521 15.712 13.713C15.52 13.905 15.2827 14.0007 15 14ZM6.025 12.45C5.95833 11.4667 6.096 10.575 6.438 9.775C6.78 8.975 7.23833 8.29567 7.813 7.737C8.38767 7.179 9.05 6.75 9.8 6.45C10.55 6.15 11.3 6 12.05 6C13.5667 6 14.8793 6.47934 15.988 7.438C17.0967 8.39667 17.7673 9.592 18 11.024C16.4333 11.008 15.0167 10.5873 13.75 9.762C12.4833 8.93667 11.525 7.866 10.875 6.55C10.6083 7.9 10.0457 9.096 9.187 10.138C8.32833 11.18 7.27367 11.9507 6.025 12.45Z" fill="#8B8989"/>
</svg>
