<svg width="23" height="18" viewBox="0 0 23 18" fill="none" xmlns="http://www.w3.org/2000/svg">
<path d="M9.72882 12.9375C10.2085 13.4062 10.813 13.6264 11.5422 13.5979C12.2714 13.5701 12.7991 13.3125 13.1253 12.825L19.5728 3.375L9.90152 9.675C9.40261 10.0125 9.12936 10.5232 9.08177 11.2072C9.03341 11.892 9.2491 12.4688 9.72882 12.9375ZM3.56915 18C3.147 18 2.75861 17.9107 2.404 17.7322C2.04862 17.5545 1.76539 17.2875 1.55431 16.9312C1.05539 16.05 0.671615 15.1361 0.402969 14.1896C0.134323 13.2424 0 12.2625 0 11.25C0 9.69375 0.302419 8.23125 0.907256 6.8625C1.51133 5.49375 2.33146 4.30313 3.36767 3.29063C4.40387 2.27813 5.62238 1.47638 7.02317 0.885375C8.42397 0.295125 9.92071 0 11.5134 0C13.0869 0 14.5644 0.290625 15.9461 0.871875C17.3277 1.45313 18.5366 2.2455 19.5728 3.249C20.609 4.25175 21.4341 5.42325 22.0482 6.7635C22.6622 8.1045 22.9788 9.54375 22.998 11.0813C23.0172 12.1125 22.8975 13.1205 22.6388 14.1053C22.3794 15.0893 21.981 16.0312 21.4437 16.9312C21.2326 17.2875 20.9498 17.5545 20.5952 17.7322C20.2398 17.9107 19.851 18 19.4289 18H3.56915Z" fill="#8B8989"/>
</svg>
